G75*
%MOIN*%
%OFA0B0*%
%FSLAX25Y25*%
%IPPOS*%
%LPD*%
%AMOC8*
5,1,8,0,0,1.08239X$1,22.5*
%
%ADD10C,0.08600*%
%ADD11OC8,0.08600*%
%ADD12OC8,0.07000*%
%ADD13C,0.09843*%
%ADD14C,0.07000*%
%ADD15C,0.07800*%
%ADD16OC8,0.07600*%
%ADD17C,0.06600*%
%ADD18C,0.05000*%
D10*
X0034718Y0058539D03*
X0034718Y0068539D03*
X0034718Y0078539D03*
X0034718Y0088539D03*
X0034718Y0098539D03*
X0034718Y0108539D03*
X0034718Y0118539D03*
X0034718Y0128539D03*
X0034718Y0138539D03*
X0034718Y0148539D03*
X0034718Y0158539D03*
X0034718Y0168539D03*
X0034718Y0178539D03*
X0034718Y0188539D03*
X0034718Y0198539D03*
X0124718Y0198539D03*
X0124718Y0188539D03*
X0124718Y0178539D03*
X0124718Y0168539D03*
X0124718Y0158539D03*
X0124718Y0148539D03*
X0124718Y0138539D03*
X0124718Y0128539D03*
X0124718Y0118539D03*
X0124718Y0108539D03*
X0124718Y0098539D03*
X0124718Y0088539D03*
X0124718Y0078539D03*
X0124718Y0068539D03*
X0124718Y0058539D03*
D11*
X0205978Y0039957D03*
X0245978Y0039957D03*
X0245072Y0087201D03*
X0205072Y0087201D03*
X0176489Y0152161D03*
X0136489Y0152161D03*
D12*
X0202139Y0152161D03*
X0209639Y0147161D03*
X0209639Y0157161D03*
D13*
X0250978Y0142752D03*
X0274600Y0134878D03*
X0298222Y0142752D03*
X0298222Y0190783D03*
X0250190Y0190783D03*
D14*
X0017667Y0057516D02*
X0010667Y0057516D01*
X0010667Y0067516D02*
X0017667Y0067516D01*
X0017667Y0077516D02*
X0010667Y0077516D01*
X0010667Y0087516D02*
X0017667Y0087516D01*
X0017667Y0097516D02*
X0010667Y0097516D01*
X0010667Y0107516D02*
X0017667Y0107516D01*
X0017667Y0117516D02*
X0010667Y0117516D01*
X0010667Y0127516D02*
X0017667Y0127516D01*
X0017667Y0137516D02*
X0010667Y0137516D01*
X0010667Y0147516D02*
X0017667Y0147516D01*
X0017667Y0157516D02*
X0010667Y0157516D01*
X0010667Y0167516D02*
X0017667Y0167516D01*
X0017667Y0177516D02*
X0010667Y0177516D01*
X0010667Y0187516D02*
X0017667Y0187516D01*
X0017667Y0197516D02*
X0010667Y0197516D01*
X0082749Y0236220D02*
X0082749Y0243220D01*
X0092749Y0243220D02*
X0092749Y0236220D01*
X0102749Y0236220D02*
X0102749Y0243220D01*
X0112749Y0243220D02*
X0112749Y0236220D01*
X0122749Y0236220D02*
X0122749Y0243220D01*
X0347277Y0069795D02*
X0347277Y0062795D01*
X0357277Y0062795D02*
X0357277Y0069795D01*
X0367277Y0069795D02*
X0367277Y0062795D01*
D15*
X0388810Y0248561D02*
X0396610Y0248561D01*
X0396610Y0268361D02*
X0388810Y0268361D01*
X0048185Y0268361D02*
X0040385Y0268361D01*
X0040385Y0248561D02*
X0048185Y0248561D01*
D16*
X0146489Y0217122D03*
X0166489Y0217122D03*
X0304127Y0224839D03*
X0304127Y0244839D03*
D17*
X0302309Y0168854D02*
X0295709Y0168854D01*
X0252309Y0168854D02*
X0245709Y0168854D01*
D18*
X0249009Y0168854D02*
X0250387Y0168854D01*
X0250387Y0145232D01*
X0250978Y0142752D02*
X0213143Y0142752D01*
X0209639Y0146256D01*
X0209639Y0147161D01*
X0202139Y0152161D02*
X0176489Y0152161D01*
X0191923Y0169878D02*
X0196923Y0169878D01*
X0209639Y0157161D01*
X0214639Y0157161D01*
X0221450Y0163972D01*
X0221450Y0181689D01*
X0268694Y0234839D01*
X0337946Y0234839D01*
X0338970Y0233815D01*
X0374403Y0269248D01*
X0391823Y0269248D01*
X0392710Y0268361D01*
X0393597Y0269248D01*
X0403930Y0269248D01*
X0433458Y0239720D01*
X0433458Y0044839D01*
X0409836Y0021217D01*
X0185427Y0021217D01*
X0173615Y0033028D01*
X0173615Y0074366D01*
X0186450Y0087201D01*
X0205072Y0087201D01*
X0200978Y0066295D02*
X0191332Y0056650D01*
X0191332Y0044839D01*
X0196214Y0039957D01*
X0205978Y0039957D01*
X0200978Y0066295D02*
X0285820Y0066295D01*
X0264915Y0087201D01*
X0245072Y0087201D01*
X0274009Y0103894D02*
X0258812Y0119091D01*
X0274600Y0134878D01*
X0274600Y0134445D01*
X0258812Y0119091D02*
X0249521Y0109799D01*
X0179521Y0109799D01*
X0155899Y0086177D01*
X0155899Y0027122D01*
X0179521Y0003500D01*
X0421647Y0003500D01*
X0451175Y0033028D01*
X0451175Y0257437D01*
X0415741Y0292870D01*
X0025978Y0292870D01*
X0014167Y0281059D01*
X0014167Y0257437D01*
X0023043Y0248561D01*
X0044285Y0248561D01*
X0044285Y0268361D02*
X0063912Y0268361D01*
X0073812Y0258461D01*
X0132867Y0258461D01*
X0156489Y0234839D01*
X0156489Y0205311D01*
X0191923Y0169878D01*
X0156489Y0205311D02*
X0138773Y0187594D01*
X0125663Y0187594D01*
X0124718Y0188539D01*
X0122434Y0188539D01*
X0124718Y0198539D02*
X0122749Y0200508D01*
X0122749Y0239720D01*
X0082749Y0239720D01*
X0124718Y0198539D02*
X0127907Y0198539D01*
X0146489Y0217122D01*
X0166489Y0217122D02*
X0186450Y0217122D01*
X0220860Y0251531D01*
X0297434Y0251531D01*
X0304127Y0244839D01*
X0304127Y0224839D02*
X0274009Y0194720D01*
X0274009Y0168854D01*
X0298222Y0144642D01*
X0298222Y0142752D01*
X0306962Y0142752D01*
X0338970Y0174760D01*
X0392119Y0174760D01*
X0415741Y0151138D01*
X0415741Y0056650D01*
X0398025Y0038933D01*
X0362592Y0038933D01*
X0357277Y0044248D01*
X0357277Y0066295D01*
X0356686Y0065705D01*
X0356686Y0044839D01*
X0350781Y0038933D01*
X0247001Y0038933D01*
X0245978Y0039957D01*
X0285820Y0066295D02*
X0347277Y0066295D01*
X0367277Y0066295D02*
X0367277Y0063776D01*
X0374403Y0056650D01*
X0386214Y0056650D01*
X0392119Y0062555D01*
X0392119Y0139327D01*
X0380308Y0151138D01*
X0338970Y0151138D01*
X0327159Y0139327D01*
X0327159Y0121610D01*
X0309442Y0103894D01*
X0274009Y0103894D01*
X0297631Y0139327D02*
X0297631Y0168854D01*
X0299009Y0168854D01*
X0298222Y0190783D02*
X0331371Y0190783D01*
X0386214Y0245626D01*
X0392119Y0245626D01*
X0398025Y0251531D01*
X0395681Y0251531D01*
X0392710Y0248561D01*
X0136489Y0152161D02*
X0136489Y0031768D01*
X0126962Y0022240D01*
X0115151Y0022240D01*
X0103340Y0034051D01*
X0103340Y0093106D01*
X0037907Y0158539D01*
X0034718Y0158539D01*
X0033694Y0157516D01*
X0014167Y0157516D01*
X0014167Y0167516D02*
X0033694Y0167516D01*
X0034718Y0168539D01*
X0033694Y0177516D02*
X0034718Y0178539D01*
X0033694Y0177516D02*
X0014167Y0177516D01*
X0014167Y0187516D02*
X0033694Y0187516D01*
X0034718Y0188539D01*
X0033694Y0197516D02*
X0034718Y0198539D01*
X0033694Y0197516D02*
X0014167Y0197516D01*
X0034718Y0148539D02*
X0033694Y0147516D01*
X0014167Y0147516D01*
X0014167Y0137516D02*
X0033694Y0137516D01*
X0034718Y0138539D01*
X0034718Y0128539D02*
X0033694Y0127516D01*
X0014167Y0127516D01*
X0014167Y0117516D02*
X0033694Y0117516D01*
X0034718Y0118539D01*
X0034718Y0108539D02*
X0033694Y0107516D01*
X0014167Y0107516D01*
X0014167Y0097516D02*
X0033694Y0097516D01*
X0034718Y0098539D01*
X0034718Y0088539D02*
X0033694Y0087516D01*
X0014167Y0087516D01*
X0014167Y0077516D02*
X0033694Y0077516D01*
X0034718Y0078539D01*
X0034718Y0068539D02*
X0033694Y0067516D01*
X0014167Y0067516D01*
X0014167Y0057516D02*
X0033694Y0057516D01*
X0034718Y0058539D01*
M02*
