G75*
%MOIN*%
%OFA0B0*%
%FSLAX25Y25*%
%IPPOS*%
%LPD*%
%AMOC8*
5,1,8,0,0,1.08239X$1,22.5*
%
%ADD10R,0.07600X0.07600*%
%ADD11C,0.08600*%
%ADD12C,0.07000*%
%ADD13OC8,0.08600*%
%ADD14C,0.06000*%
%ADD15C,0.05000*%
%ADD16OC8,0.05200*%
D10*
X0201721Y0359556D03*
X0051721Y0404556D03*
D11*
X0051721Y0394556D03*
X0051721Y0384556D03*
X0051721Y0374556D03*
X0051721Y0359556D03*
X0061721Y0359556D03*
X0071721Y0359556D03*
X0081721Y0359556D03*
X0091721Y0359556D03*
X0101721Y0359556D03*
X0111721Y0359556D03*
X0121721Y0359556D03*
X0131721Y0359556D03*
X0141721Y0359556D03*
X0151721Y0359556D03*
X0161721Y0359556D03*
X0171721Y0359556D03*
X0181721Y0359556D03*
X0191721Y0359556D03*
X0190737Y0322706D03*
X0180737Y0322706D03*
X0170737Y0322706D03*
X0160737Y0322706D03*
X0150737Y0322706D03*
X0140737Y0322706D03*
X0130737Y0322706D03*
X0120737Y0322706D03*
X0110737Y0322706D03*
X0100737Y0322706D03*
X0090737Y0322706D03*
X0080737Y0322706D03*
X0070737Y0322706D03*
X0060737Y0322706D03*
X0050737Y0322706D03*
X0200737Y0322706D03*
D12*
X0048607Y0061288D02*
X0041607Y0061288D01*
X0041607Y0071288D02*
X0048607Y0071288D01*
X0048607Y0081288D02*
X0041607Y0081288D01*
X0041607Y0091288D02*
X0048607Y0091288D01*
X0048607Y0101288D02*
X0041607Y0101288D01*
X0041607Y0111288D02*
X0048607Y0111288D01*
X0048607Y0121288D02*
X0041607Y0121288D01*
X0041607Y0131288D02*
X0048607Y0131288D01*
X0078221Y0131682D02*
X0085221Y0131682D01*
X0085221Y0121682D02*
X0078221Y0121682D01*
X0078221Y0111682D02*
X0085221Y0111682D01*
X0085221Y0101682D02*
X0078221Y0101682D01*
X0078221Y0091682D02*
X0085221Y0091682D01*
X0085221Y0081682D02*
X0078221Y0081682D01*
X0078221Y0071682D02*
X0085221Y0071682D01*
X0085221Y0061682D02*
X0078221Y0061682D01*
D13*
X0241957Y0353847D03*
X0241957Y0393847D03*
X0334477Y0409595D03*
X0334477Y0369595D03*
D14*
X0300422Y0406280D02*
X0300422Y0412280D01*
X0290422Y0412280D02*
X0290422Y0406280D01*
X0280422Y0406280D02*
X0280422Y0412280D01*
X0270422Y0412280D02*
X0270422Y0406280D01*
X0260422Y0406280D02*
X0260422Y0412280D01*
X0250422Y0412280D02*
X0250422Y0406280D01*
D15*
X0250422Y0409280D02*
X0250422Y0402312D01*
X0241957Y0393847D01*
X0259674Y0383690D02*
X0259674Y0405343D01*
X0260422Y0406091D01*
X0260422Y0409280D01*
X0269517Y0408375D02*
X0269517Y0391564D01*
X0281328Y0379753D01*
X0289202Y0379753D01*
X0295107Y0373847D01*
X0295107Y0358099D01*
X0301013Y0352194D01*
X0305324Y0352194D01*
X0309261Y0356131D01*
X0309261Y0353631D02*
X0309261Y0358631D01*
X0306918Y0363473D02*
X0306918Y0385658D01*
X0302981Y0389595D01*
X0287233Y0389595D01*
X0280422Y0396406D01*
X0280422Y0409280D01*
X0270422Y0409280D02*
X0269517Y0408375D01*
X0290422Y0409280D02*
X0290422Y0402154D01*
X0293139Y0399438D01*
X0308887Y0399438D01*
X0318729Y0389595D01*
X0318729Y0356662D01*
X0319261Y0356131D01*
X0319261Y0353631D02*
X0319261Y0358631D01*
X0314261Y0358631D02*
X0314261Y0353631D01*
X0314261Y0356131D02*
X0306918Y0363473D01*
X0324261Y0358631D02*
X0324261Y0353631D01*
X0324261Y0356131D02*
X0334477Y0366347D01*
X0334477Y0369595D01*
X0334477Y0409595D02*
X0300737Y0409595D01*
X0300422Y0409280D01*
X0259674Y0383690D02*
X0275422Y0367942D01*
X0275422Y0355068D01*
X0274517Y0354162D01*
X0264517Y0354162D02*
X0242272Y0354162D01*
X0241957Y0353847D01*
X0201721Y0359556D02*
X0200737Y0358572D01*
X0200737Y0322706D01*
X0190737Y0322706D02*
X0190737Y0358572D01*
X0191721Y0359556D01*
X0181721Y0359556D02*
X0180737Y0358572D01*
X0180737Y0322706D01*
X0170737Y0322706D02*
X0170737Y0358572D01*
X0171721Y0359556D01*
X0161721Y0359556D02*
X0160737Y0358572D01*
X0160737Y0322706D01*
X0150737Y0322706D02*
X0150737Y0358572D01*
X0151721Y0359556D01*
X0141721Y0359556D02*
X0140737Y0358572D01*
X0140737Y0322706D01*
X0130737Y0322706D02*
X0130737Y0358572D01*
X0131721Y0359556D01*
X0121721Y0359556D02*
X0120737Y0358572D01*
X0120737Y0322706D01*
X0110737Y0322706D02*
X0110737Y0358572D01*
X0111721Y0359556D01*
X0101721Y0359556D02*
X0100737Y0358572D01*
X0100737Y0322706D01*
X0090737Y0322706D02*
X0090737Y0358572D01*
X0091721Y0359556D01*
X0081721Y0359556D02*
X0080737Y0358572D01*
X0080737Y0322706D01*
X0070737Y0322706D02*
X0070737Y0358572D01*
X0071721Y0359556D01*
X0061721Y0359556D02*
X0060737Y0358572D01*
X0060737Y0322706D01*
X0050737Y0322706D02*
X0050737Y0358572D01*
X0051721Y0359556D01*
X0045107Y0131288D02*
X0084044Y0131288D01*
X0084477Y0131721D01*
X0084477Y0121879D02*
X0083887Y0121288D01*
X0045107Y0121288D01*
X0045107Y0111288D02*
X0085225Y0111288D01*
X0086446Y0110068D01*
X0081721Y0101682D02*
X0081328Y0101288D01*
X0045107Y0101288D01*
X0045107Y0091288D02*
X0081603Y0091288D01*
X0083729Y0081288D02*
X0084477Y0080540D01*
X0083729Y0081288D02*
X0045107Y0081288D01*
X0045107Y0071288D02*
X0083887Y0071288D01*
X0084477Y0070698D01*
X0084044Y0061288D02*
X0084477Y0060855D01*
X0084044Y0061288D02*
X0045107Y0061288D01*
D16*
X0264517Y0354162D03*
X0274517Y0354162D03*
M02*
