G75*
%MOIN*%
%OFA0B0*%
%FSLAX25Y25*%
%IPPOS*%
%LPD*%
%AMOC8*
5,1,8,0,0,1.08239X$1,22.5*
%
%ADD10C,0.09400*%
%ADD11C,0.13398*%
%ADD12OC8,0.09400*%
%ADD13OC8,0.07800*%
%ADD14C,0.10643*%
%ADD15C,0.07800*%
%ADD16C,0.13800*%
%ADD17C,0.08600*%
%ADD18OC8,0.08400*%
%ADD19C,0.07400*%
D10*
X0034718Y0058539D03*
X0034718Y0068539D03*
X0034718Y0078539D03*
X0034718Y0088539D03*
X0034718Y0098539D03*
X0034718Y0108539D03*
X0034718Y0118539D03*
X0034718Y0128539D03*
X0034718Y0138539D03*
X0034718Y0148539D03*
X0034718Y0158539D03*
X0034718Y0168539D03*
X0034718Y0178539D03*
X0034718Y0188539D03*
X0034718Y0198539D03*
X0124718Y0198539D03*
X0124718Y0188539D03*
X0124718Y0178539D03*
X0124718Y0168539D03*
X0124718Y0158539D03*
X0124718Y0148539D03*
X0124718Y0138539D03*
X0124718Y0128539D03*
X0124718Y0118539D03*
X0124718Y0108539D03*
X0124718Y0098539D03*
X0124718Y0088539D03*
X0124718Y0078539D03*
X0124718Y0068539D03*
X0124718Y0058539D03*
D11*
X0039718Y0043539D03*
X0119718Y0043539D03*
X0119718Y0213539D03*
X0039718Y0213539D03*
D12*
X0136489Y0152161D03*
X0176489Y0152161D03*
X0205072Y0087201D03*
X0245072Y0087201D03*
X0245978Y0039957D03*
X0205978Y0039957D03*
D13*
X0209639Y0147161D03*
X0202139Y0152161D03*
X0209639Y0157161D03*
D14*
X0250978Y0142752D03*
X0274600Y0134878D03*
X0298222Y0142752D03*
X0298222Y0190783D03*
X0250190Y0190783D03*
D15*
X0122749Y0236220D02*
X0122749Y0243220D01*
X0112749Y0243220D02*
X0112749Y0236220D01*
X0102749Y0236220D02*
X0102749Y0243220D01*
X0092749Y0243220D02*
X0092749Y0236220D01*
X0082749Y0236220D02*
X0082749Y0243220D01*
X0017667Y0197516D02*
X0010667Y0197516D01*
X0010667Y0187516D02*
X0017667Y0187516D01*
X0017667Y0177516D02*
X0010667Y0177516D01*
X0010667Y0167516D02*
X0017667Y0167516D01*
X0017667Y0157516D02*
X0010667Y0157516D01*
X0010667Y0147516D02*
X0017667Y0147516D01*
X0017667Y0137516D02*
X0010667Y0137516D01*
X0010667Y0127516D02*
X0017667Y0127516D01*
X0017667Y0117516D02*
X0010667Y0117516D01*
X0010667Y0107516D02*
X0017667Y0107516D01*
X0017667Y0097516D02*
X0010667Y0097516D01*
X0010667Y0087516D02*
X0017667Y0087516D01*
X0017667Y0077516D02*
X0010667Y0077516D01*
X0010667Y0067516D02*
X0017667Y0067516D01*
X0017667Y0057516D02*
X0010667Y0057516D01*
X0347277Y0062795D02*
X0347277Y0069795D01*
X0357277Y0069795D02*
X0357277Y0062795D01*
X0367277Y0062795D02*
X0367277Y0069795D01*
D16*
X0357277Y0125295D03*
D17*
X0388810Y0248561D02*
X0396610Y0248561D01*
X0396610Y0268361D02*
X0388810Y0268361D01*
X0048185Y0268361D02*
X0040385Y0268361D01*
X0040385Y0248561D02*
X0048185Y0248561D01*
D18*
X0146489Y0217122D03*
X0166489Y0217122D03*
X0304127Y0224839D03*
X0304127Y0244839D03*
D19*
X0302309Y0168854D02*
X0295709Y0168854D01*
X0252309Y0168854D02*
X0245709Y0168854D01*
M02*
