G75*
%MOIN*%
%OFA0B0*%
%FSLAX25Y25*%
%IPPOS*%
%LPD*%
%AMOC8*
5,1,8,0,0,1.08239X$1,22.5*
%
%ADD10C,0.01000*%
%ADD11C,0.00600*%
%ADD12C,0.00000*%
%ADD13C,0.00500*%
D10*
X0189445Y0203421D02*
X0189445Y0213421D01*
X0199445Y0213421D01*
X0199445Y0203421D01*
X0189445Y0203421D01*
X0199445Y0203421D02*
X0249445Y0203421D01*
X0249445Y0213421D01*
X0199445Y0213421D01*
X0259445Y0213421D02*
X0259445Y0203421D01*
X0269445Y0203421D01*
X0269445Y0213421D01*
X0319445Y0213421D01*
X0319445Y0203421D01*
X0269445Y0203421D01*
X0269445Y0213421D02*
X0259445Y0213421D01*
X0239445Y0393421D02*
X0239445Y0403421D01*
X0309445Y0403421D01*
X0319445Y0403421D01*
X0319445Y0393421D01*
X0309445Y0393421D01*
X0309445Y0403421D01*
X0309445Y0393421D02*
X0239445Y0393421D01*
X0233445Y0393421D02*
X0233445Y0403421D01*
X0223445Y0403421D01*
X0223445Y0393421D01*
X0153445Y0393421D01*
X0153445Y0403421D01*
X0223445Y0403421D01*
X0223445Y0393421D02*
X0233445Y0393421D01*
D11*
X0203079Y0404721D02*
X0201477Y0404721D01*
X0201477Y0407123D01*
X0200316Y0406323D02*
X0200316Y0404721D01*
X0200316Y0405922D02*
X0198715Y0405922D01*
X0198715Y0406323D02*
X0199516Y0407123D01*
X0200316Y0406323D01*
X0198715Y0406323D02*
X0198715Y0404721D01*
X0196753Y0404721D02*
X0196753Y0407123D01*
X0195953Y0407123D02*
X0197554Y0407123D01*
X0194912Y0407123D02*
X0194111Y0407123D01*
X0194511Y0407123D02*
X0194511Y0404721D01*
X0194111Y0404721D02*
X0194912Y0404721D01*
X0192950Y0405122D02*
X0192950Y0405922D01*
X0192149Y0405922D01*
X0191349Y0405122D02*
X0191749Y0404721D01*
X0192550Y0404721D01*
X0192950Y0405122D01*
X0192950Y0406723D02*
X0192550Y0407123D01*
X0191749Y0407123D01*
X0191349Y0406723D01*
X0191349Y0405122D01*
X0190308Y0404721D02*
X0189507Y0404721D01*
X0189908Y0404721D02*
X0189908Y0407123D01*
X0190308Y0407123D02*
X0189507Y0407123D01*
X0188346Y0406723D02*
X0187946Y0407123D01*
X0186745Y0407123D01*
X0186745Y0404721D01*
X0187946Y0404721D01*
X0188346Y0405122D01*
X0188346Y0406723D01*
X0276245Y0407123D02*
X0277446Y0407123D01*
X0277846Y0406723D01*
X0277846Y0405122D01*
X0277446Y0404721D01*
X0276245Y0404721D01*
X0276245Y0407123D01*
X0279007Y0407123D02*
X0279808Y0407123D01*
X0279408Y0407123D02*
X0279408Y0404721D01*
X0279808Y0404721D02*
X0279007Y0404721D01*
X0280849Y0405122D02*
X0281249Y0404721D01*
X0282050Y0404721D01*
X0282450Y0405122D01*
X0282450Y0405922D01*
X0281649Y0405922D01*
X0280849Y0405122D02*
X0280849Y0406723D01*
X0281249Y0407123D01*
X0282050Y0407123D01*
X0282450Y0406723D01*
X0283611Y0407123D02*
X0284412Y0407123D01*
X0284011Y0407123D02*
X0284011Y0404721D01*
X0283611Y0404721D02*
X0284412Y0404721D01*
X0286253Y0404721D02*
X0286253Y0407123D01*
X0285453Y0407123D02*
X0287054Y0407123D01*
X0288215Y0406323D02*
X0289016Y0407123D01*
X0289816Y0406323D01*
X0289816Y0404721D01*
X0290977Y0404721D02*
X0292579Y0404721D01*
X0290977Y0404721D02*
X0290977Y0407123D01*
X0289816Y0405922D02*
X0288215Y0405922D01*
X0288215Y0406323D02*
X0288215Y0404721D01*
X0287609Y0202123D02*
X0287609Y0199721D01*
X0286007Y0202123D01*
X0286007Y0199721D01*
X0284846Y0199721D02*
X0284846Y0201323D01*
X0284046Y0202123D01*
X0283245Y0201323D01*
X0283245Y0199721D01*
X0283245Y0200922D02*
X0284846Y0200922D01*
X0288770Y0200922D02*
X0290371Y0200922D01*
X0290371Y0201323D02*
X0290371Y0199721D01*
X0291532Y0199721D02*
X0293133Y0199721D01*
X0294294Y0200122D02*
X0294695Y0199721D01*
X0295495Y0199721D01*
X0295896Y0200122D01*
X0295896Y0201723D01*
X0295495Y0202123D01*
X0294695Y0202123D01*
X0294294Y0201723D01*
X0294294Y0200122D01*
X0297057Y0200122D02*
X0297457Y0199721D01*
X0298258Y0199721D01*
X0298658Y0200122D01*
X0298658Y0200922D01*
X0297857Y0200922D01*
X0297057Y0200122D02*
X0297057Y0201723D01*
X0297457Y0202123D01*
X0298258Y0202123D01*
X0298658Y0201723D01*
X0291532Y0202123D02*
X0291532Y0199721D01*
X0290371Y0201323D02*
X0289570Y0202123D01*
X0288770Y0201323D01*
X0288770Y0199721D01*
X0226896Y0199721D02*
X0226095Y0200522D01*
X0226495Y0200522D02*
X0225294Y0200522D01*
X0225294Y0199721D02*
X0225294Y0202123D01*
X0226495Y0202123D01*
X0226896Y0201723D01*
X0226896Y0200922D01*
X0226495Y0200522D01*
X0224133Y0199721D02*
X0222532Y0199721D01*
X0222532Y0202123D01*
X0224133Y0202123D01*
X0223333Y0200922D02*
X0222532Y0200922D01*
X0221371Y0199721D02*
X0221371Y0202123D01*
X0219770Y0202123D02*
X0219770Y0199721D01*
X0220570Y0200522D01*
X0221371Y0199721D01*
X0218609Y0200122D02*
X0218609Y0201723D01*
X0218208Y0202123D01*
X0217408Y0202123D01*
X0217007Y0201723D01*
X0217007Y0200122D01*
X0217408Y0199721D01*
X0218208Y0199721D01*
X0218609Y0200122D01*
X0215846Y0200922D02*
X0215446Y0200522D01*
X0214245Y0200522D01*
X0214245Y0199721D02*
X0214245Y0202123D01*
X0215446Y0202123D01*
X0215846Y0201723D01*
X0215846Y0200922D01*
X0132516Y0123677D02*
X0132516Y0118677D01*
X0130016Y0116177D01*
X0132516Y0113677D01*
X0132516Y0108677D01*
X0130016Y0106177D01*
X0132516Y0103677D01*
X0132516Y0098677D01*
X0130016Y0096177D01*
X0132516Y0093677D01*
X0132516Y0088677D01*
X0130016Y0086177D01*
X0125016Y0086177D01*
X0122516Y0083677D01*
X0122516Y0078677D01*
X0125016Y0076177D01*
X0130016Y0076177D01*
X0132516Y0078677D01*
X0132516Y0083677D01*
X0130016Y0086177D01*
X0125016Y0086177D02*
X0122516Y0088677D01*
X0122516Y0093677D01*
X0125016Y0096177D01*
X0122516Y0098677D01*
X0122516Y0103677D01*
X0125016Y0106177D01*
X0122516Y0108677D01*
X0122516Y0113677D01*
X0125016Y0116177D01*
X0122516Y0118677D01*
X0122516Y0123677D01*
X0125016Y0126177D01*
X0130016Y0126177D01*
X0132516Y0123677D01*
X0130016Y0116177D02*
X0125016Y0116177D01*
X0125016Y0106177D02*
X0130016Y0106177D01*
X0130016Y0096177D02*
X0125016Y0096177D01*
X0125016Y0076177D02*
X0122516Y0073677D01*
X0122516Y0068677D01*
X0125016Y0066177D01*
X0130016Y0066177D01*
X0132516Y0063677D01*
X0132516Y0058677D01*
X0130016Y0056177D01*
X0132516Y0053677D01*
X0132516Y0048677D01*
X0130016Y0046177D01*
X0125016Y0046177D01*
X0122516Y0048677D01*
X0122516Y0053677D01*
X0125016Y0056177D01*
X0122516Y0058677D01*
X0122516Y0063677D01*
X0125016Y0066177D01*
X0130016Y0066177D02*
X0132516Y0068677D01*
X0132516Y0073677D01*
X0130016Y0076177D01*
X0130016Y0056177D02*
X0125016Y0056177D01*
X0102988Y0055177D02*
X0102988Y0046177D01*
X0092988Y0046177D01*
X0092988Y0055177D01*
X0093988Y0056177D01*
X0092988Y0057177D01*
X0092988Y0065177D01*
X0093988Y0066177D01*
X0092988Y0067177D01*
X0092988Y0075177D01*
X0093988Y0076177D01*
X0092988Y0077177D01*
X0092988Y0085177D01*
X0093988Y0086177D01*
X0092988Y0087177D01*
X0092988Y0095177D01*
X0093988Y0096177D01*
X0092988Y0097177D01*
X0092988Y0105177D01*
X0093988Y0106177D01*
X0092988Y0107177D01*
X0092988Y0115177D01*
X0093988Y0116177D01*
X0092988Y0117177D01*
X0092988Y0126177D01*
X0102988Y0126177D01*
X0102988Y0117177D01*
X0101988Y0116177D01*
X0102988Y0115177D01*
X0102988Y0107177D01*
X0101988Y0106177D01*
X0102988Y0105177D01*
X0102988Y0097177D01*
X0101988Y0096177D01*
X0102988Y0095177D01*
X0102988Y0087177D01*
X0101988Y0086177D01*
X0102988Y0085177D01*
X0102988Y0077177D01*
X0101988Y0076177D01*
X0102988Y0075177D01*
X0102988Y0067177D01*
X0101988Y0066177D01*
X0102988Y0065177D01*
X0102988Y0057177D01*
X0101988Y0056177D01*
X0102988Y0055177D01*
D12*
X0117949Y0208421D02*
X0117951Y0208582D01*
X0117957Y0208742D01*
X0117967Y0208903D01*
X0117981Y0209063D01*
X0117999Y0209222D01*
X0118020Y0209382D01*
X0118046Y0209540D01*
X0118076Y0209698D01*
X0118109Y0209855D01*
X0118147Y0210012D01*
X0118188Y0210167D01*
X0118233Y0210321D01*
X0118282Y0210474D01*
X0118335Y0210626D01*
X0118391Y0210776D01*
X0118451Y0210925D01*
X0118515Y0211073D01*
X0118582Y0211219D01*
X0118653Y0211363D01*
X0118728Y0211505D01*
X0118806Y0211646D01*
X0118887Y0211784D01*
X0118972Y0211921D01*
X0119061Y0212055D01*
X0119152Y0212187D01*
X0119247Y0212317D01*
X0119345Y0212444D01*
X0119446Y0212569D01*
X0119550Y0212692D01*
X0119657Y0212811D01*
X0119767Y0212928D01*
X0119880Y0213043D01*
X0119996Y0213154D01*
X0120114Y0213263D01*
X0120235Y0213368D01*
X0120359Y0213471D01*
X0120485Y0213571D01*
X0120614Y0213667D01*
X0120745Y0213760D01*
X0120878Y0213850D01*
X0121013Y0213937D01*
X0121151Y0214020D01*
X0121290Y0214099D01*
X0121432Y0214176D01*
X0121575Y0214249D01*
X0121720Y0214318D01*
X0121867Y0214383D01*
X0122015Y0214445D01*
X0122165Y0214504D01*
X0122316Y0214558D01*
X0122468Y0214609D01*
X0122622Y0214656D01*
X0122777Y0214699D01*
X0122932Y0214738D01*
X0123089Y0214774D01*
X0123247Y0214806D01*
X0123405Y0214833D01*
X0123564Y0214857D01*
X0123723Y0214877D01*
X0123883Y0214893D01*
X0124044Y0214905D01*
X0124204Y0214913D01*
X0124365Y0214917D01*
X0124525Y0214917D01*
X0124686Y0214913D01*
X0124846Y0214905D01*
X0125007Y0214893D01*
X0125167Y0214877D01*
X0125326Y0214857D01*
X0125485Y0214833D01*
X0125643Y0214806D01*
X0125801Y0214774D01*
X0125958Y0214738D01*
X0126113Y0214699D01*
X0126268Y0214656D01*
X0126422Y0214609D01*
X0126574Y0214558D01*
X0126725Y0214504D01*
X0126875Y0214445D01*
X0127023Y0214383D01*
X0127170Y0214318D01*
X0127315Y0214249D01*
X0127458Y0214176D01*
X0127600Y0214099D01*
X0127739Y0214020D01*
X0127877Y0213937D01*
X0128012Y0213850D01*
X0128145Y0213760D01*
X0128276Y0213667D01*
X0128405Y0213571D01*
X0128531Y0213471D01*
X0128655Y0213368D01*
X0128776Y0213263D01*
X0128894Y0213154D01*
X0129010Y0213043D01*
X0129123Y0212928D01*
X0129233Y0212811D01*
X0129340Y0212692D01*
X0129444Y0212569D01*
X0129545Y0212444D01*
X0129643Y0212317D01*
X0129738Y0212187D01*
X0129829Y0212055D01*
X0129918Y0211921D01*
X0130003Y0211784D01*
X0130084Y0211646D01*
X0130162Y0211505D01*
X0130237Y0211363D01*
X0130308Y0211219D01*
X0130375Y0211073D01*
X0130439Y0210925D01*
X0130499Y0210776D01*
X0130555Y0210626D01*
X0130608Y0210474D01*
X0130657Y0210321D01*
X0130702Y0210167D01*
X0130743Y0210012D01*
X0130781Y0209855D01*
X0130814Y0209698D01*
X0130844Y0209540D01*
X0130870Y0209382D01*
X0130891Y0209222D01*
X0130909Y0209063D01*
X0130923Y0208903D01*
X0130933Y0208742D01*
X0130939Y0208582D01*
X0130941Y0208421D01*
X0130939Y0208260D01*
X0130933Y0208100D01*
X0130923Y0207939D01*
X0130909Y0207779D01*
X0130891Y0207620D01*
X0130870Y0207460D01*
X0130844Y0207302D01*
X0130814Y0207144D01*
X0130781Y0206987D01*
X0130743Y0206830D01*
X0130702Y0206675D01*
X0130657Y0206521D01*
X0130608Y0206368D01*
X0130555Y0206216D01*
X0130499Y0206066D01*
X0130439Y0205917D01*
X0130375Y0205769D01*
X0130308Y0205623D01*
X0130237Y0205479D01*
X0130162Y0205337D01*
X0130084Y0205196D01*
X0130003Y0205058D01*
X0129918Y0204921D01*
X0129829Y0204787D01*
X0129738Y0204655D01*
X0129643Y0204525D01*
X0129545Y0204398D01*
X0129444Y0204273D01*
X0129340Y0204150D01*
X0129233Y0204031D01*
X0129123Y0203914D01*
X0129010Y0203799D01*
X0128894Y0203688D01*
X0128776Y0203579D01*
X0128655Y0203474D01*
X0128531Y0203371D01*
X0128405Y0203271D01*
X0128276Y0203175D01*
X0128145Y0203082D01*
X0128012Y0202992D01*
X0127877Y0202905D01*
X0127739Y0202822D01*
X0127600Y0202743D01*
X0127458Y0202666D01*
X0127315Y0202593D01*
X0127170Y0202524D01*
X0127023Y0202459D01*
X0126875Y0202397D01*
X0126725Y0202338D01*
X0126574Y0202284D01*
X0126422Y0202233D01*
X0126268Y0202186D01*
X0126113Y0202143D01*
X0125958Y0202104D01*
X0125801Y0202068D01*
X0125643Y0202036D01*
X0125485Y0202009D01*
X0125326Y0201985D01*
X0125167Y0201965D01*
X0125007Y0201949D01*
X0124846Y0201937D01*
X0124686Y0201929D01*
X0124525Y0201925D01*
X0124365Y0201925D01*
X0124204Y0201929D01*
X0124044Y0201937D01*
X0123883Y0201949D01*
X0123723Y0201965D01*
X0123564Y0201985D01*
X0123405Y0202009D01*
X0123247Y0202036D01*
X0123089Y0202068D01*
X0122932Y0202104D01*
X0122777Y0202143D01*
X0122622Y0202186D01*
X0122468Y0202233D01*
X0122316Y0202284D01*
X0122165Y0202338D01*
X0122015Y0202397D01*
X0121867Y0202459D01*
X0121720Y0202524D01*
X0121575Y0202593D01*
X0121432Y0202666D01*
X0121290Y0202743D01*
X0121151Y0202822D01*
X0121013Y0202905D01*
X0120878Y0202992D01*
X0120745Y0203082D01*
X0120614Y0203175D01*
X0120485Y0203271D01*
X0120359Y0203371D01*
X0120235Y0203474D01*
X0120114Y0203579D01*
X0119996Y0203688D01*
X0119880Y0203799D01*
X0119767Y0203914D01*
X0119657Y0204031D01*
X0119550Y0204150D01*
X0119446Y0204273D01*
X0119345Y0204398D01*
X0119247Y0204525D01*
X0119152Y0204655D01*
X0119061Y0204787D01*
X0118972Y0204921D01*
X0118887Y0205058D01*
X0118806Y0205196D01*
X0118728Y0205337D01*
X0118653Y0205479D01*
X0118582Y0205623D01*
X0118515Y0205769D01*
X0118451Y0205917D01*
X0118391Y0206066D01*
X0118335Y0206216D01*
X0118282Y0206368D01*
X0118233Y0206521D01*
X0118188Y0206675D01*
X0118147Y0206830D01*
X0118109Y0206987D01*
X0118076Y0207144D01*
X0118046Y0207302D01*
X0118020Y0207460D01*
X0117999Y0207620D01*
X0117981Y0207779D01*
X0117967Y0207939D01*
X0117957Y0208100D01*
X0117951Y0208260D01*
X0117949Y0208421D01*
X0117949Y0398421D02*
X0117951Y0398582D01*
X0117957Y0398742D01*
X0117967Y0398903D01*
X0117981Y0399063D01*
X0117999Y0399222D01*
X0118020Y0399382D01*
X0118046Y0399540D01*
X0118076Y0399698D01*
X0118109Y0399855D01*
X0118147Y0400012D01*
X0118188Y0400167D01*
X0118233Y0400321D01*
X0118282Y0400474D01*
X0118335Y0400626D01*
X0118391Y0400776D01*
X0118451Y0400925D01*
X0118515Y0401073D01*
X0118582Y0401219D01*
X0118653Y0401363D01*
X0118728Y0401505D01*
X0118806Y0401646D01*
X0118887Y0401784D01*
X0118972Y0401921D01*
X0119061Y0402055D01*
X0119152Y0402187D01*
X0119247Y0402317D01*
X0119345Y0402444D01*
X0119446Y0402569D01*
X0119550Y0402692D01*
X0119657Y0402811D01*
X0119767Y0402928D01*
X0119880Y0403043D01*
X0119996Y0403154D01*
X0120114Y0403263D01*
X0120235Y0403368D01*
X0120359Y0403471D01*
X0120485Y0403571D01*
X0120614Y0403667D01*
X0120745Y0403760D01*
X0120878Y0403850D01*
X0121013Y0403937D01*
X0121151Y0404020D01*
X0121290Y0404099D01*
X0121432Y0404176D01*
X0121575Y0404249D01*
X0121720Y0404318D01*
X0121867Y0404383D01*
X0122015Y0404445D01*
X0122165Y0404504D01*
X0122316Y0404558D01*
X0122468Y0404609D01*
X0122622Y0404656D01*
X0122777Y0404699D01*
X0122932Y0404738D01*
X0123089Y0404774D01*
X0123247Y0404806D01*
X0123405Y0404833D01*
X0123564Y0404857D01*
X0123723Y0404877D01*
X0123883Y0404893D01*
X0124044Y0404905D01*
X0124204Y0404913D01*
X0124365Y0404917D01*
X0124525Y0404917D01*
X0124686Y0404913D01*
X0124846Y0404905D01*
X0125007Y0404893D01*
X0125167Y0404877D01*
X0125326Y0404857D01*
X0125485Y0404833D01*
X0125643Y0404806D01*
X0125801Y0404774D01*
X0125958Y0404738D01*
X0126113Y0404699D01*
X0126268Y0404656D01*
X0126422Y0404609D01*
X0126574Y0404558D01*
X0126725Y0404504D01*
X0126875Y0404445D01*
X0127023Y0404383D01*
X0127170Y0404318D01*
X0127315Y0404249D01*
X0127458Y0404176D01*
X0127600Y0404099D01*
X0127739Y0404020D01*
X0127877Y0403937D01*
X0128012Y0403850D01*
X0128145Y0403760D01*
X0128276Y0403667D01*
X0128405Y0403571D01*
X0128531Y0403471D01*
X0128655Y0403368D01*
X0128776Y0403263D01*
X0128894Y0403154D01*
X0129010Y0403043D01*
X0129123Y0402928D01*
X0129233Y0402811D01*
X0129340Y0402692D01*
X0129444Y0402569D01*
X0129545Y0402444D01*
X0129643Y0402317D01*
X0129738Y0402187D01*
X0129829Y0402055D01*
X0129918Y0401921D01*
X0130003Y0401784D01*
X0130084Y0401646D01*
X0130162Y0401505D01*
X0130237Y0401363D01*
X0130308Y0401219D01*
X0130375Y0401073D01*
X0130439Y0400925D01*
X0130499Y0400776D01*
X0130555Y0400626D01*
X0130608Y0400474D01*
X0130657Y0400321D01*
X0130702Y0400167D01*
X0130743Y0400012D01*
X0130781Y0399855D01*
X0130814Y0399698D01*
X0130844Y0399540D01*
X0130870Y0399382D01*
X0130891Y0399222D01*
X0130909Y0399063D01*
X0130923Y0398903D01*
X0130933Y0398742D01*
X0130939Y0398582D01*
X0130941Y0398421D01*
X0130939Y0398260D01*
X0130933Y0398100D01*
X0130923Y0397939D01*
X0130909Y0397779D01*
X0130891Y0397620D01*
X0130870Y0397460D01*
X0130844Y0397302D01*
X0130814Y0397144D01*
X0130781Y0396987D01*
X0130743Y0396830D01*
X0130702Y0396675D01*
X0130657Y0396521D01*
X0130608Y0396368D01*
X0130555Y0396216D01*
X0130499Y0396066D01*
X0130439Y0395917D01*
X0130375Y0395769D01*
X0130308Y0395623D01*
X0130237Y0395479D01*
X0130162Y0395337D01*
X0130084Y0395196D01*
X0130003Y0395058D01*
X0129918Y0394921D01*
X0129829Y0394787D01*
X0129738Y0394655D01*
X0129643Y0394525D01*
X0129545Y0394398D01*
X0129444Y0394273D01*
X0129340Y0394150D01*
X0129233Y0394031D01*
X0129123Y0393914D01*
X0129010Y0393799D01*
X0128894Y0393688D01*
X0128776Y0393579D01*
X0128655Y0393474D01*
X0128531Y0393371D01*
X0128405Y0393271D01*
X0128276Y0393175D01*
X0128145Y0393082D01*
X0128012Y0392992D01*
X0127877Y0392905D01*
X0127739Y0392822D01*
X0127600Y0392743D01*
X0127458Y0392666D01*
X0127315Y0392593D01*
X0127170Y0392524D01*
X0127023Y0392459D01*
X0126875Y0392397D01*
X0126725Y0392338D01*
X0126574Y0392284D01*
X0126422Y0392233D01*
X0126268Y0392186D01*
X0126113Y0392143D01*
X0125958Y0392104D01*
X0125801Y0392068D01*
X0125643Y0392036D01*
X0125485Y0392009D01*
X0125326Y0391985D01*
X0125167Y0391965D01*
X0125007Y0391949D01*
X0124846Y0391937D01*
X0124686Y0391929D01*
X0124525Y0391925D01*
X0124365Y0391925D01*
X0124204Y0391929D01*
X0124044Y0391937D01*
X0123883Y0391949D01*
X0123723Y0391965D01*
X0123564Y0391985D01*
X0123405Y0392009D01*
X0123247Y0392036D01*
X0123089Y0392068D01*
X0122932Y0392104D01*
X0122777Y0392143D01*
X0122622Y0392186D01*
X0122468Y0392233D01*
X0122316Y0392284D01*
X0122165Y0392338D01*
X0122015Y0392397D01*
X0121867Y0392459D01*
X0121720Y0392524D01*
X0121575Y0392593D01*
X0121432Y0392666D01*
X0121290Y0392743D01*
X0121151Y0392822D01*
X0121013Y0392905D01*
X0120878Y0392992D01*
X0120745Y0393082D01*
X0120614Y0393175D01*
X0120485Y0393271D01*
X0120359Y0393371D01*
X0120235Y0393474D01*
X0120114Y0393579D01*
X0119996Y0393688D01*
X0119880Y0393799D01*
X0119767Y0393914D01*
X0119657Y0394031D01*
X0119550Y0394150D01*
X0119446Y0394273D01*
X0119345Y0394398D01*
X0119247Y0394525D01*
X0119152Y0394655D01*
X0119061Y0394787D01*
X0118972Y0394921D01*
X0118887Y0395058D01*
X0118806Y0395196D01*
X0118728Y0395337D01*
X0118653Y0395479D01*
X0118582Y0395623D01*
X0118515Y0395769D01*
X0118451Y0395917D01*
X0118391Y0396066D01*
X0118335Y0396216D01*
X0118282Y0396368D01*
X0118233Y0396521D01*
X0118188Y0396675D01*
X0118147Y0396830D01*
X0118109Y0396987D01*
X0118076Y0397144D01*
X0118046Y0397302D01*
X0118020Y0397460D01*
X0117999Y0397620D01*
X0117981Y0397779D01*
X0117967Y0397939D01*
X0117957Y0398100D01*
X0117951Y0398260D01*
X0117949Y0398421D01*
X0317949Y0338421D02*
X0317951Y0338582D01*
X0317957Y0338742D01*
X0317967Y0338903D01*
X0317981Y0339063D01*
X0317999Y0339222D01*
X0318020Y0339382D01*
X0318046Y0339540D01*
X0318076Y0339698D01*
X0318109Y0339855D01*
X0318147Y0340012D01*
X0318188Y0340167D01*
X0318233Y0340321D01*
X0318282Y0340474D01*
X0318335Y0340626D01*
X0318391Y0340776D01*
X0318451Y0340925D01*
X0318515Y0341073D01*
X0318582Y0341219D01*
X0318653Y0341363D01*
X0318728Y0341505D01*
X0318806Y0341646D01*
X0318887Y0341784D01*
X0318972Y0341921D01*
X0319061Y0342055D01*
X0319152Y0342187D01*
X0319247Y0342317D01*
X0319345Y0342444D01*
X0319446Y0342569D01*
X0319550Y0342692D01*
X0319657Y0342811D01*
X0319767Y0342928D01*
X0319880Y0343043D01*
X0319996Y0343154D01*
X0320114Y0343263D01*
X0320235Y0343368D01*
X0320359Y0343471D01*
X0320485Y0343571D01*
X0320614Y0343667D01*
X0320745Y0343760D01*
X0320878Y0343850D01*
X0321013Y0343937D01*
X0321151Y0344020D01*
X0321290Y0344099D01*
X0321432Y0344176D01*
X0321575Y0344249D01*
X0321720Y0344318D01*
X0321867Y0344383D01*
X0322015Y0344445D01*
X0322165Y0344504D01*
X0322316Y0344558D01*
X0322468Y0344609D01*
X0322622Y0344656D01*
X0322777Y0344699D01*
X0322932Y0344738D01*
X0323089Y0344774D01*
X0323247Y0344806D01*
X0323405Y0344833D01*
X0323564Y0344857D01*
X0323723Y0344877D01*
X0323883Y0344893D01*
X0324044Y0344905D01*
X0324204Y0344913D01*
X0324365Y0344917D01*
X0324525Y0344917D01*
X0324686Y0344913D01*
X0324846Y0344905D01*
X0325007Y0344893D01*
X0325167Y0344877D01*
X0325326Y0344857D01*
X0325485Y0344833D01*
X0325643Y0344806D01*
X0325801Y0344774D01*
X0325958Y0344738D01*
X0326113Y0344699D01*
X0326268Y0344656D01*
X0326422Y0344609D01*
X0326574Y0344558D01*
X0326725Y0344504D01*
X0326875Y0344445D01*
X0327023Y0344383D01*
X0327170Y0344318D01*
X0327315Y0344249D01*
X0327458Y0344176D01*
X0327600Y0344099D01*
X0327739Y0344020D01*
X0327877Y0343937D01*
X0328012Y0343850D01*
X0328145Y0343760D01*
X0328276Y0343667D01*
X0328405Y0343571D01*
X0328531Y0343471D01*
X0328655Y0343368D01*
X0328776Y0343263D01*
X0328894Y0343154D01*
X0329010Y0343043D01*
X0329123Y0342928D01*
X0329233Y0342811D01*
X0329340Y0342692D01*
X0329444Y0342569D01*
X0329545Y0342444D01*
X0329643Y0342317D01*
X0329738Y0342187D01*
X0329829Y0342055D01*
X0329918Y0341921D01*
X0330003Y0341784D01*
X0330084Y0341646D01*
X0330162Y0341505D01*
X0330237Y0341363D01*
X0330308Y0341219D01*
X0330375Y0341073D01*
X0330439Y0340925D01*
X0330499Y0340776D01*
X0330555Y0340626D01*
X0330608Y0340474D01*
X0330657Y0340321D01*
X0330702Y0340167D01*
X0330743Y0340012D01*
X0330781Y0339855D01*
X0330814Y0339698D01*
X0330844Y0339540D01*
X0330870Y0339382D01*
X0330891Y0339222D01*
X0330909Y0339063D01*
X0330923Y0338903D01*
X0330933Y0338742D01*
X0330939Y0338582D01*
X0330941Y0338421D01*
X0330939Y0338260D01*
X0330933Y0338100D01*
X0330923Y0337939D01*
X0330909Y0337779D01*
X0330891Y0337620D01*
X0330870Y0337460D01*
X0330844Y0337302D01*
X0330814Y0337144D01*
X0330781Y0336987D01*
X0330743Y0336830D01*
X0330702Y0336675D01*
X0330657Y0336521D01*
X0330608Y0336368D01*
X0330555Y0336216D01*
X0330499Y0336066D01*
X0330439Y0335917D01*
X0330375Y0335769D01*
X0330308Y0335623D01*
X0330237Y0335479D01*
X0330162Y0335337D01*
X0330084Y0335196D01*
X0330003Y0335058D01*
X0329918Y0334921D01*
X0329829Y0334787D01*
X0329738Y0334655D01*
X0329643Y0334525D01*
X0329545Y0334398D01*
X0329444Y0334273D01*
X0329340Y0334150D01*
X0329233Y0334031D01*
X0329123Y0333914D01*
X0329010Y0333799D01*
X0328894Y0333688D01*
X0328776Y0333579D01*
X0328655Y0333474D01*
X0328531Y0333371D01*
X0328405Y0333271D01*
X0328276Y0333175D01*
X0328145Y0333082D01*
X0328012Y0332992D01*
X0327877Y0332905D01*
X0327739Y0332822D01*
X0327600Y0332743D01*
X0327458Y0332666D01*
X0327315Y0332593D01*
X0327170Y0332524D01*
X0327023Y0332459D01*
X0326875Y0332397D01*
X0326725Y0332338D01*
X0326574Y0332284D01*
X0326422Y0332233D01*
X0326268Y0332186D01*
X0326113Y0332143D01*
X0325958Y0332104D01*
X0325801Y0332068D01*
X0325643Y0332036D01*
X0325485Y0332009D01*
X0325326Y0331985D01*
X0325167Y0331965D01*
X0325007Y0331949D01*
X0324846Y0331937D01*
X0324686Y0331929D01*
X0324525Y0331925D01*
X0324365Y0331925D01*
X0324204Y0331929D01*
X0324044Y0331937D01*
X0323883Y0331949D01*
X0323723Y0331965D01*
X0323564Y0331985D01*
X0323405Y0332009D01*
X0323247Y0332036D01*
X0323089Y0332068D01*
X0322932Y0332104D01*
X0322777Y0332143D01*
X0322622Y0332186D01*
X0322468Y0332233D01*
X0322316Y0332284D01*
X0322165Y0332338D01*
X0322015Y0332397D01*
X0321867Y0332459D01*
X0321720Y0332524D01*
X0321575Y0332593D01*
X0321432Y0332666D01*
X0321290Y0332743D01*
X0321151Y0332822D01*
X0321013Y0332905D01*
X0320878Y0332992D01*
X0320745Y0333082D01*
X0320614Y0333175D01*
X0320485Y0333271D01*
X0320359Y0333371D01*
X0320235Y0333474D01*
X0320114Y0333579D01*
X0319996Y0333688D01*
X0319880Y0333799D01*
X0319767Y0333914D01*
X0319657Y0334031D01*
X0319550Y0334150D01*
X0319446Y0334273D01*
X0319345Y0334398D01*
X0319247Y0334525D01*
X0319152Y0334655D01*
X0319061Y0334787D01*
X0318972Y0334921D01*
X0318887Y0335058D01*
X0318806Y0335196D01*
X0318728Y0335337D01*
X0318653Y0335479D01*
X0318582Y0335623D01*
X0318515Y0335769D01*
X0318451Y0335917D01*
X0318391Y0336066D01*
X0318335Y0336216D01*
X0318282Y0336368D01*
X0318233Y0336521D01*
X0318188Y0336675D01*
X0318147Y0336830D01*
X0318109Y0336987D01*
X0318076Y0337144D01*
X0318046Y0337302D01*
X0318020Y0337460D01*
X0317999Y0337620D01*
X0317981Y0337779D01*
X0317967Y0337939D01*
X0317957Y0338100D01*
X0317951Y0338260D01*
X0317949Y0338421D01*
X0317949Y0228421D02*
X0317951Y0228582D01*
X0317957Y0228742D01*
X0317967Y0228903D01*
X0317981Y0229063D01*
X0317999Y0229222D01*
X0318020Y0229382D01*
X0318046Y0229540D01*
X0318076Y0229698D01*
X0318109Y0229855D01*
X0318147Y0230012D01*
X0318188Y0230167D01*
X0318233Y0230321D01*
X0318282Y0230474D01*
X0318335Y0230626D01*
X0318391Y0230776D01*
X0318451Y0230925D01*
X0318515Y0231073D01*
X0318582Y0231219D01*
X0318653Y0231363D01*
X0318728Y0231505D01*
X0318806Y0231646D01*
X0318887Y0231784D01*
X0318972Y0231921D01*
X0319061Y0232055D01*
X0319152Y0232187D01*
X0319247Y0232317D01*
X0319345Y0232444D01*
X0319446Y0232569D01*
X0319550Y0232692D01*
X0319657Y0232811D01*
X0319767Y0232928D01*
X0319880Y0233043D01*
X0319996Y0233154D01*
X0320114Y0233263D01*
X0320235Y0233368D01*
X0320359Y0233471D01*
X0320485Y0233571D01*
X0320614Y0233667D01*
X0320745Y0233760D01*
X0320878Y0233850D01*
X0321013Y0233937D01*
X0321151Y0234020D01*
X0321290Y0234099D01*
X0321432Y0234176D01*
X0321575Y0234249D01*
X0321720Y0234318D01*
X0321867Y0234383D01*
X0322015Y0234445D01*
X0322165Y0234504D01*
X0322316Y0234558D01*
X0322468Y0234609D01*
X0322622Y0234656D01*
X0322777Y0234699D01*
X0322932Y0234738D01*
X0323089Y0234774D01*
X0323247Y0234806D01*
X0323405Y0234833D01*
X0323564Y0234857D01*
X0323723Y0234877D01*
X0323883Y0234893D01*
X0324044Y0234905D01*
X0324204Y0234913D01*
X0324365Y0234917D01*
X0324525Y0234917D01*
X0324686Y0234913D01*
X0324846Y0234905D01*
X0325007Y0234893D01*
X0325167Y0234877D01*
X0325326Y0234857D01*
X0325485Y0234833D01*
X0325643Y0234806D01*
X0325801Y0234774D01*
X0325958Y0234738D01*
X0326113Y0234699D01*
X0326268Y0234656D01*
X0326422Y0234609D01*
X0326574Y0234558D01*
X0326725Y0234504D01*
X0326875Y0234445D01*
X0327023Y0234383D01*
X0327170Y0234318D01*
X0327315Y0234249D01*
X0327458Y0234176D01*
X0327600Y0234099D01*
X0327739Y0234020D01*
X0327877Y0233937D01*
X0328012Y0233850D01*
X0328145Y0233760D01*
X0328276Y0233667D01*
X0328405Y0233571D01*
X0328531Y0233471D01*
X0328655Y0233368D01*
X0328776Y0233263D01*
X0328894Y0233154D01*
X0329010Y0233043D01*
X0329123Y0232928D01*
X0329233Y0232811D01*
X0329340Y0232692D01*
X0329444Y0232569D01*
X0329545Y0232444D01*
X0329643Y0232317D01*
X0329738Y0232187D01*
X0329829Y0232055D01*
X0329918Y0231921D01*
X0330003Y0231784D01*
X0330084Y0231646D01*
X0330162Y0231505D01*
X0330237Y0231363D01*
X0330308Y0231219D01*
X0330375Y0231073D01*
X0330439Y0230925D01*
X0330499Y0230776D01*
X0330555Y0230626D01*
X0330608Y0230474D01*
X0330657Y0230321D01*
X0330702Y0230167D01*
X0330743Y0230012D01*
X0330781Y0229855D01*
X0330814Y0229698D01*
X0330844Y0229540D01*
X0330870Y0229382D01*
X0330891Y0229222D01*
X0330909Y0229063D01*
X0330923Y0228903D01*
X0330933Y0228742D01*
X0330939Y0228582D01*
X0330941Y0228421D01*
X0330939Y0228260D01*
X0330933Y0228100D01*
X0330923Y0227939D01*
X0330909Y0227779D01*
X0330891Y0227620D01*
X0330870Y0227460D01*
X0330844Y0227302D01*
X0330814Y0227144D01*
X0330781Y0226987D01*
X0330743Y0226830D01*
X0330702Y0226675D01*
X0330657Y0226521D01*
X0330608Y0226368D01*
X0330555Y0226216D01*
X0330499Y0226066D01*
X0330439Y0225917D01*
X0330375Y0225769D01*
X0330308Y0225623D01*
X0330237Y0225479D01*
X0330162Y0225337D01*
X0330084Y0225196D01*
X0330003Y0225058D01*
X0329918Y0224921D01*
X0329829Y0224787D01*
X0329738Y0224655D01*
X0329643Y0224525D01*
X0329545Y0224398D01*
X0329444Y0224273D01*
X0329340Y0224150D01*
X0329233Y0224031D01*
X0329123Y0223914D01*
X0329010Y0223799D01*
X0328894Y0223688D01*
X0328776Y0223579D01*
X0328655Y0223474D01*
X0328531Y0223371D01*
X0328405Y0223271D01*
X0328276Y0223175D01*
X0328145Y0223082D01*
X0328012Y0222992D01*
X0327877Y0222905D01*
X0327739Y0222822D01*
X0327600Y0222743D01*
X0327458Y0222666D01*
X0327315Y0222593D01*
X0327170Y0222524D01*
X0327023Y0222459D01*
X0326875Y0222397D01*
X0326725Y0222338D01*
X0326574Y0222284D01*
X0326422Y0222233D01*
X0326268Y0222186D01*
X0326113Y0222143D01*
X0325958Y0222104D01*
X0325801Y0222068D01*
X0325643Y0222036D01*
X0325485Y0222009D01*
X0325326Y0221985D01*
X0325167Y0221965D01*
X0325007Y0221949D01*
X0324846Y0221937D01*
X0324686Y0221929D01*
X0324525Y0221925D01*
X0324365Y0221925D01*
X0324204Y0221929D01*
X0324044Y0221937D01*
X0323883Y0221949D01*
X0323723Y0221965D01*
X0323564Y0221985D01*
X0323405Y0222009D01*
X0323247Y0222036D01*
X0323089Y0222068D01*
X0322932Y0222104D01*
X0322777Y0222143D01*
X0322622Y0222186D01*
X0322468Y0222233D01*
X0322316Y0222284D01*
X0322165Y0222338D01*
X0322015Y0222397D01*
X0321867Y0222459D01*
X0321720Y0222524D01*
X0321575Y0222593D01*
X0321432Y0222666D01*
X0321290Y0222743D01*
X0321151Y0222822D01*
X0321013Y0222905D01*
X0320878Y0222992D01*
X0320745Y0223082D01*
X0320614Y0223175D01*
X0320485Y0223271D01*
X0320359Y0223371D01*
X0320235Y0223474D01*
X0320114Y0223579D01*
X0319996Y0223688D01*
X0319880Y0223799D01*
X0319767Y0223914D01*
X0319657Y0224031D01*
X0319550Y0224150D01*
X0319446Y0224273D01*
X0319345Y0224398D01*
X0319247Y0224525D01*
X0319152Y0224655D01*
X0319061Y0224787D01*
X0318972Y0224921D01*
X0318887Y0225058D01*
X0318806Y0225196D01*
X0318728Y0225337D01*
X0318653Y0225479D01*
X0318582Y0225623D01*
X0318515Y0225769D01*
X0318451Y0225917D01*
X0318391Y0226066D01*
X0318335Y0226216D01*
X0318282Y0226368D01*
X0318233Y0226521D01*
X0318188Y0226675D01*
X0318147Y0226830D01*
X0318109Y0226987D01*
X0318076Y0227144D01*
X0318046Y0227302D01*
X0318020Y0227460D01*
X0317999Y0227620D01*
X0317981Y0227779D01*
X0317967Y0227939D01*
X0317957Y0228100D01*
X0317951Y0228260D01*
X0317949Y0228421D01*
D13*
X0091738Y0050928D02*
X0087234Y0050928D01*
X0088736Y0049427D01*
X0091738Y0049427D02*
X0091738Y0052430D01*
X0091238Y0061427D02*
X0086734Y0061427D01*
X0086734Y0064430D01*
X0087485Y0066031D02*
X0086734Y0066782D01*
X0086734Y0068283D01*
X0087485Y0069034D01*
X0088986Y0068283D02*
X0088986Y0066782D01*
X0088236Y0066031D01*
X0087485Y0066031D01*
X0085984Y0067532D02*
X0091989Y0067532D01*
X0091238Y0066782D02*
X0091238Y0068283D01*
X0090488Y0069034D01*
X0089737Y0069034D01*
X0088986Y0068283D01*
X0088986Y0070635D02*
X0088986Y0073638D01*
X0091238Y0072887D02*
X0086734Y0072887D01*
X0088986Y0070635D01*
X0091238Y0066782D02*
X0090488Y0066031D01*
X0091238Y0064430D02*
X0091238Y0061427D01*
X0088986Y0061427D02*
X0088986Y0062928D01*
X0108439Y0023810D02*
X0107688Y0023059D01*
X0107688Y0021558D01*
X0108439Y0020807D01*
X0108439Y0019206D02*
X0107688Y0018455D01*
X0107688Y0016954D01*
X0108439Y0016204D01*
X0109189Y0016204D01*
X0109940Y0016954D01*
X0109940Y0018455D01*
X0110690Y0019206D01*
X0111441Y0019206D01*
X0112192Y0018455D01*
X0112192Y0016954D01*
X0111441Y0016204D01*
X0112192Y0014602D02*
X0112192Y0011600D01*
X0107688Y0011600D01*
X0107688Y0014602D01*
X0109940Y0013101D02*
X0109940Y0011600D01*
X0106937Y0017705D02*
X0112942Y0017705D01*
X0112192Y0020807D02*
X0109189Y0023810D01*
X0108439Y0023810D01*
X0112192Y0023810D02*
X0112192Y0020807D01*
X0090988Y0119427D02*
X0090237Y0119427D01*
X0089486Y0120178D01*
X0089486Y0121679D01*
X0090237Y0122430D01*
X0090988Y0122430D01*
X0091738Y0121679D01*
X0091738Y0120178D01*
X0090988Y0119427D01*
X0089486Y0120178D02*
X0088736Y0119427D01*
X0087985Y0119427D01*
X0087234Y0120178D01*
X0087234Y0121679D01*
X0087985Y0122430D01*
X0088736Y0122430D01*
X0089486Y0121679D01*
M02*
