G75*
%MOIN*%
%OFA0B0*%
%FSLAX25Y25*%
%IPPOS*%
%LPD*%
%AMOC8*
5,1,8,0,0,1.08239X$1,22.5*
%
%ADD10C,0.07600*%
%ADD11OC8,0.08600*%
%ADD12C,0.07000*%
%ADD13C,0.05600*%
%ADD14C,0.05000*%
D10*
X0011800Y0047000D02*
X0011800Y0054600D01*
X0021800Y0054600D02*
X0021800Y0047000D01*
X0031800Y0047000D02*
X0031800Y0054600D01*
D11*
X0011800Y0005800D03*
X0011800Y0025800D03*
X0051800Y0025800D03*
X0051800Y0005800D03*
D12*
X0079757Y0026469D02*
X0086757Y0026469D01*
X0086757Y0036469D02*
X0079757Y0036469D01*
X0079757Y0061902D02*
X0086757Y0061902D01*
X0086757Y0071902D02*
X0079757Y0071902D01*
X0079757Y0097335D02*
X0086757Y0097335D01*
X0086757Y0107335D02*
X0079757Y0107335D01*
X0103379Y0107335D02*
X0110379Y0107335D01*
X0110379Y0097335D02*
X0103379Y0097335D01*
D13*
X0083257Y0107335D02*
X0069635Y0107335D01*
X0051761Y0089461D01*
X0051761Y0061902D01*
X0039950Y0050091D01*
X0032509Y0050091D01*
X0031800Y0050800D01*
X0021800Y0050800D02*
X0021800Y0040682D01*
X0024202Y0038280D01*
X0047824Y0038280D01*
X0051761Y0034343D01*
X0051761Y0026469D01*
X0051800Y0025800D02*
X0051800Y0034383D01*
X0063572Y0046154D01*
X0073257Y0036469D01*
X0083257Y0036469D01*
X0063572Y0046154D02*
X0063572Y0065839D01*
X0069635Y0071902D01*
X0083257Y0071902D01*
X0052469Y0026469D02*
X0051800Y0025800D01*
X0011800Y0025800D02*
X0011800Y0005800D01*
X0011800Y0025800D02*
X0011800Y0050800D01*
D14*
X0051800Y0005800D02*
X0058650Y0005800D01*
X0063572Y0010721D01*
X0063572Y0018595D01*
X0071446Y0026469D01*
X0083257Y0026469D01*
X0091131Y0026469D01*
X0095068Y0030406D01*
X0095068Y0057965D01*
X0091131Y0061902D01*
X0083257Y0061902D01*
X0091131Y0061902D02*
X0095068Y0065839D01*
X0095068Y0093398D01*
X0099005Y0097335D01*
X0106879Y0097335D01*
X0106879Y0107335D02*
X0083257Y0107335D01*
X0083257Y0097335D02*
X0091131Y0097335D01*
X0095068Y0093398D01*
M02*
