G75*
%MOIN*%
%OFA0B0*%
%FSLAX25Y25*%
%IPPOS*%
%LPD*%
%AMOC8*
5,1,8,0,0,1.08239X$1,22.5*
%
%ADD10C,0.00600*%
%ADD11C,0.00200*%
%ADD12C,0.00700*%
%ADD13C,0.00400*%
%ADD14R,0.05000X0.03500*%
%ADD15C,0.00000*%
%ADD16R,0.03400X0.02400*%
%ADD17C,0.00500*%
D10*
X0019300Y0002300D02*
X0019300Y0009300D01*
X0019302Y0009360D01*
X0019307Y0009421D01*
X0019316Y0009480D01*
X0019329Y0009539D01*
X0019345Y0009598D01*
X0019365Y0009655D01*
X0019388Y0009710D01*
X0019415Y0009765D01*
X0019444Y0009817D01*
X0019477Y0009868D01*
X0019513Y0009917D01*
X0019551Y0009963D01*
X0019593Y0010007D01*
X0019637Y0010049D01*
X0019683Y0010087D01*
X0019732Y0010123D01*
X0019783Y0010156D01*
X0019835Y0010185D01*
X0019890Y0010212D01*
X0019945Y0010235D01*
X0020002Y0010255D01*
X0020061Y0010271D01*
X0020120Y0010284D01*
X0020179Y0010293D01*
X0020240Y0010298D01*
X0020300Y0010300D01*
X0021800Y0010300D01*
X0022300Y0009800D01*
X0041300Y0009800D01*
X0041800Y0010300D01*
X0043300Y0010300D01*
X0043360Y0010298D01*
X0043421Y0010293D01*
X0043480Y0010284D01*
X0043539Y0010271D01*
X0043598Y0010255D01*
X0043655Y0010235D01*
X0043710Y0010212D01*
X0043765Y0010185D01*
X0043817Y0010156D01*
X0043868Y0010123D01*
X0043917Y0010087D01*
X0043963Y0010049D01*
X0044007Y0010007D01*
X0044049Y0009963D01*
X0044087Y0009917D01*
X0044123Y0009868D01*
X0044156Y0009817D01*
X0044185Y0009765D01*
X0044212Y0009710D01*
X0044235Y0009655D01*
X0044255Y0009598D01*
X0044271Y0009539D01*
X0044284Y0009480D01*
X0044293Y0009421D01*
X0044298Y0009360D01*
X0044300Y0009300D01*
X0044300Y0002300D01*
X0044298Y0002240D01*
X0044293Y0002179D01*
X0044284Y0002120D01*
X0044271Y0002061D01*
X0044255Y0002002D01*
X0044235Y0001945D01*
X0044212Y0001890D01*
X0044185Y0001835D01*
X0044156Y0001783D01*
X0044123Y0001732D01*
X0044087Y0001683D01*
X0044049Y0001637D01*
X0044007Y0001593D01*
X0043963Y0001551D01*
X0043917Y0001513D01*
X0043868Y0001477D01*
X0043817Y0001444D01*
X0043765Y0001415D01*
X0043710Y0001388D01*
X0043655Y0001365D01*
X0043598Y0001345D01*
X0043539Y0001329D01*
X0043480Y0001316D01*
X0043421Y0001307D01*
X0043360Y0001302D01*
X0043300Y0001300D01*
X0041800Y0001300D01*
X0041300Y0001800D01*
X0022300Y0001800D01*
X0021800Y0001300D01*
X0020300Y0001300D01*
X0020240Y0001302D01*
X0020179Y0001307D01*
X0020120Y0001316D01*
X0020061Y0001329D01*
X0020002Y0001345D01*
X0019945Y0001365D01*
X0019890Y0001388D01*
X0019835Y0001415D01*
X0019783Y0001444D01*
X0019732Y0001477D01*
X0019683Y0001513D01*
X0019637Y0001551D01*
X0019593Y0001593D01*
X0019551Y0001637D01*
X0019513Y0001683D01*
X0019477Y0001732D01*
X0019444Y0001783D01*
X0019415Y0001835D01*
X0019388Y0001890D01*
X0019365Y0001945D01*
X0019345Y0002002D01*
X0019329Y0002061D01*
X0019316Y0002120D01*
X0019307Y0002179D01*
X0019302Y0002240D01*
X0019300Y0002300D01*
X0020300Y0021300D02*
X0021800Y0021300D01*
X0022300Y0021800D01*
X0041300Y0021800D01*
X0041800Y0021300D01*
X0043300Y0021300D01*
X0043360Y0021302D01*
X0043421Y0021307D01*
X0043480Y0021316D01*
X0043539Y0021329D01*
X0043598Y0021345D01*
X0043655Y0021365D01*
X0043710Y0021388D01*
X0043765Y0021415D01*
X0043817Y0021444D01*
X0043868Y0021477D01*
X0043917Y0021513D01*
X0043963Y0021551D01*
X0044007Y0021593D01*
X0044049Y0021637D01*
X0044087Y0021683D01*
X0044123Y0021732D01*
X0044156Y0021783D01*
X0044185Y0021835D01*
X0044212Y0021890D01*
X0044235Y0021945D01*
X0044255Y0022002D01*
X0044271Y0022061D01*
X0044284Y0022120D01*
X0044293Y0022179D01*
X0044298Y0022240D01*
X0044300Y0022300D01*
X0044300Y0029300D01*
X0044298Y0029360D01*
X0044293Y0029421D01*
X0044284Y0029480D01*
X0044271Y0029539D01*
X0044255Y0029598D01*
X0044235Y0029655D01*
X0044212Y0029710D01*
X0044185Y0029765D01*
X0044156Y0029817D01*
X0044123Y0029868D01*
X0044087Y0029917D01*
X0044049Y0029963D01*
X0044007Y0030007D01*
X0043963Y0030049D01*
X0043917Y0030087D01*
X0043868Y0030123D01*
X0043817Y0030156D01*
X0043765Y0030185D01*
X0043710Y0030212D01*
X0043655Y0030235D01*
X0043598Y0030255D01*
X0043539Y0030271D01*
X0043480Y0030284D01*
X0043421Y0030293D01*
X0043360Y0030298D01*
X0043300Y0030300D01*
X0041800Y0030300D01*
X0041300Y0029800D01*
X0022300Y0029800D01*
X0021800Y0030300D01*
X0020300Y0030300D01*
X0020240Y0030298D01*
X0020179Y0030293D01*
X0020120Y0030284D01*
X0020061Y0030271D01*
X0020002Y0030255D01*
X0019945Y0030235D01*
X0019890Y0030212D01*
X0019835Y0030185D01*
X0019783Y0030156D01*
X0019732Y0030123D01*
X0019683Y0030087D01*
X0019637Y0030049D01*
X0019593Y0030007D01*
X0019551Y0029963D01*
X0019513Y0029917D01*
X0019477Y0029868D01*
X0019444Y0029817D01*
X0019415Y0029765D01*
X0019388Y0029710D01*
X0019365Y0029655D01*
X0019345Y0029598D01*
X0019329Y0029539D01*
X0019316Y0029480D01*
X0019307Y0029421D01*
X0019302Y0029360D01*
X0019300Y0029300D01*
X0019300Y0022300D01*
X0019302Y0022240D01*
X0019307Y0022179D01*
X0019316Y0022120D01*
X0019329Y0022061D01*
X0019345Y0022002D01*
X0019365Y0021945D01*
X0019388Y0021890D01*
X0019415Y0021835D01*
X0019444Y0021783D01*
X0019477Y0021732D01*
X0019513Y0021683D01*
X0019551Y0021637D01*
X0019593Y0021593D01*
X0019637Y0021551D01*
X0019683Y0021513D01*
X0019732Y0021477D01*
X0019783Y0021444D01*
X0019835Y0021415D01*
X0019890Y0021388D01*
X0019945Y0021365D01*
X0020002Y0021345D01*
X0020061Y0021329D01*
X0020120Y0021316D01*
X0020179Y0021307D01*
X0020240Y0021302D01*
X0020300Y0021300D01*
X0001300Y0060800D02*
X0001300Y0109800D01*
X0004800Y0109800D01*
X0004800Y0115800D01*
X0001300Y0115800D01*
X0001300Y0123300D01*
X0042300Y0123300D01*
X0042300Y0115800D01*
X0038800Y0115800D01*
X0038800Y0109800D01*
X0042300Y0109800D01*
X0042300Y0060800D01*
X0001300Y0060800D01*
X0014700Y0109800D02*
X0014702Y0109974D01*
X0014709Y0110148D01*
X0014719Y0110322D01*
X0014734Y0110496D01*
X0014753Y0110669D01*
X0014777Y0110842D01*
X0014805Y0111014D01*
X0014836Y0111185D01*
X0014873Y0111356D01*
X0014913Y0111525D01*
X0014957Y0111694D01*
X0015006Y0111861D01*
X0015058Y0112027D01*
X0015115Y0112192D01*
X0015176Y0112355D01*
X0015240Y0112517D01*
X0015309Y0112677D01*
X0015382Y0112836D01*
X0015458Y0112992D01*
X0015538Y0113147D01*
X0015622Y0113300D01*
X0015710Y0113450D01*
X0015802Y0113598D01*
X0015897Y0113745D01*
X0015995Y0113888D01*
X0016097Y0114029D01*
X0016203Y0114168D01*
X0016312Y0114304D01*
X0016424Y0114438D01*
X0016539Y0114568D01*
X0016658Y0114696D01*
X0016780Y0114820D01*
X0016904Y0114942D01*
X0017032Y0115061D01*
X0017162Y0115176D01*
X0017296Y0115288D01*
X0017432Y0115397D01*
X0017571Y0115503D01*
X0017712Y0115605D01*
X0017855Y0115703D01*
X0018002Y0115798D01*
X0018150Y0115890D01*
X0018300Y0115978D01*
X0018453Y0116062D01*
X0018608Y0116142D01*
X0018764Y0116218D01*
X0018923Y0116291D01*
X0019083Y0116360D01*
X0019245Y0116424D01*
X0019408Y0116485D01*
X0019573Y0116542D01*
X0019739Y0116594D01*
X0019906Y0116643D01*
X0020075Y0116687D01*
X0020244Y0116727D01*
X0020415Y0116764D01*
X0020586Y0116795D01*
X0020758Y0116823D01*
X0020931Y0116847D01*
X0021104Y0116866D01*
X0021278Y0116881D01*
X0021452Y0116891D01*
X0021626Y0116898D01*
X0021800Y0116900D01*
X0021974Y0116898D01*
X0022148Y0116891D01*
X0022322Y0116881D01*
X0022496Y0116866D01*
X0022669Y0116847D01*
X0022842Y0116823D01*
X0023014Y0116795D01*
X0023185Y0116764D01*
X0023356Y0116727D01*
X0023525Y0116687D01*
X0023694Y0116643D01*
X0023861Y0116594D01*
X0024027Y0116542D01*
X0024192Y0116485D01*
X0024355Y0116424D01*
X0024517Y0116360D01*
X0024677Y0116291D01*
X0024836Y0116218D01*
X0024992Y0116142D01*
X0025147Y0116062D01*
X0025300Y0115978D01*
X0025450Y0115890D01*
X0025598Y0115798D01*
X0025745Y0115703D01*
X0025888Y0115605D01*
X0026029Y0115503D01*
X0026168Y0115397D01*
X0026304Y0115288D01*
X0026438Y0115176D01*
X0026568Y0115061D01*
X0026696Y0114942D01*
X0026820Y0114820D01*
X0026942Y0114696D01*
X0027061Y0114568D01*
X0027176Y0114438D01*
X0027288Y0114304D01*
X0027397Y0114168D01*
X0027503Y0114029D01*
X0027605Y0113888D01*
X0027703Y0113745D01*
X0027798Y0113598D01*
X0027890Y0113450D01*
X0027978Y0113300D01*
X0028062Y0113147D01*
X0028142Y0112992D01*
X0028218Y0112836D01*
X0028291Y0112677D01*
X0028360Y0112517D01*
X0028424Y0112355D01*
X0028485Y0112192D01*
X0028542Y0112027D01*
X0028594Y0111861D01*
X0028643Y0111694D01*
X0028687Y0111525D01*
X0028727Y0111356D01*
X0028764Y0111185D01*
X0028795Y0111014D01*
X0028823Y0110842D01*
X0028847Y0110669D01*
X0028866Y0110496D01*
X0028881Y0110322D01*
X0028891Y0110148D01*
X0028898Y0109974D01*
X0028900Y0109800D01*
X0028898Y0109626D01*
X0028891Y0109452D01*
X0028881Y0109278D01*
X0028866Y0109104D01*
X0028847Y0108931D01*
X0028823Y0108758D01*
X0028795Y0108586D01*
X0028764Y0108415D01*
X0028727Y0108244D01*
X0028687Y0108075D01*
X0028643Y0107906D01*
X0028594Y0107739D01*
X0028542Y0107573D01*
X0028485Y0107408D01*
X0028424Y0107245D01*
X0028360Y0107083D01*
X0028291Y0106923D01*
X0028218Y0106764D01*
X0028142Y0106608D01*
X0028062Y0106453D01*
X0027978Y0106300D01*
X0027890Y0106150D01*
X0027798Y0106002D01*
X0027703Y0105855D01*
X0027605Y0105712D01*
X0027503Y0105571D01*
X0027397Y0105432D01*
X0027288Y0105296D01*
X0027176Y0105162D01*
X0027061Y0105032D01*
X0026942Y0104904D01*
X0026820Y0104780D01*
X0026696Y0104658D01*
X0026568Y0104539D01*
X0026438Y0104424D01*
X0026304Y0104312D01*
X0026168Y0104203D01*
X0026029Y0104097D01*
X0025888Y0103995D01*
X0025745Y0103897D01*
X0025598Y0103802D01*
X0025450Y0103710D01*
X0025300Y0103622D01*
X0025147Y0103538D01*
X0024992Y0103458D01*
X0024836Y0103382D01*
X0024677Y0103309D01*
X0024517Y0103240D01*
X0024355Y0103176D01*
X0024192Y0103115D01*
X0024027Y0103058D01*
X0023861Y0103006D01*
X0023694Y0102957D01*
X0023525Y0102913D01*
X0023356Y0102873D01*
X0023185Y0102836D01*
X0023014Y0102805D01*
X0022842Y0102777D01*
X0022669Y0102753D01*
X0022496Y0102734D01*
X0022322Y0102719D01*
X0022148Y0102709D01*
X0021974Y0102702D01*
X0021800Y0102700D01*
X0021626Y0102702D01*
X0021452Y0102709D01*
X0021278Y0102719D01*
X0021104Y0102734D01*
X0020931Y0102753D01*
X0020758Y0102777D01*
X0020586Y0102805D01*
X0020415Y0102836D01*
X0020244Y0102873D01*
X0020075Y0102913D01*
X0019906Y0102957D01*
X0019739Y0103006D01*
X0019573Y0103058D01*
X0019408Y0103115D01*
X0019245Y0103176D01*
X0019083Y0103240D01*
X0018923Y0103309D01*
X0018764Y0103382D01*
X0018608Y0103458D01*
X0018453Y0103538D01*
X0018300Y0103622D01*
X0018150Y0103710D01*
X0018002Y0103802D01*
X0017855Y0103897D01*
X0017712Y0103995D01*
X0017571Y0104097D01*
X0017432Y0104203D01*
X0017296Y0104312D01*
X0017162Y0104424D01*
X0017032Y0104539D01*
X0016904Y0104658D01*
X0016780Y0104780D01*
X0016658Y0104904D01*
X0016539Y0105032D01*
X0016424Y0105162D01*
X0016312Y0105296D01*
X0016203Y0105432D01*
X0016097Y0105571D01*
X0015995Y0105712D01*
X0015897Y0105855D01*
X0015802Y0106002D01*
X0015710Y0106150D01*
X0015622Y0106300D01*
X0015538Y0106453D01*
X0015458Y0106608D01*
X0015382Y0106764D01*
X0015309Y0106923D01*
X0015240Y0107083D01*
X0015176Y0107245D01*
X0015115Y0107408D01*
X0015058Y0107573D01*
X0015006Y0107739D01*
X0014957Y0107906D01*
X0014913Y0108075D01*
X0014873Y0108244D01*
X0014836Y0108415D01*
X0014805Y0108586D01*
X0014777Y0108758D01*
X0014753Y0108931D01*
X0014734Y0109104D01*
X0014719Y0109278D01*
X0014709Y0109452D01*
X0014702Y0109626D01*
X0014700Y0109800D01*
X0078257Y0109835D02*
X0078257Y0104835D01*
X0080757Y0102335D01*
X0078257Y0099835D01*
X0078257Y0094835D01*
X0080757Y0092335D01*
X0085757Y0092335D02*
X0088257Y0094835D01*
X0088257Y0099835D01*
X0085757Y0102335D01*
X0088257Y0104835D01*
X0088257Y0109835D01*
X0085757Y0112335D01*
X0080757Y0112335D01*
X0078257Y0109835D01*
X0101879Y0109835D02*
X0101879Y0104835D01*
X0104379Y0102335D01*
X0101879Y0099835D01*
X0101879Y0094835D01*
X0104379Y0092335D01*
X0109379Y0092335D02*
X0111879Y0094835D01*
X0111879Y0099835D01*
X0109379Y0102335D01*
X0111879Y0104835D01*
X0111879Y0109835D01*
X0109379Y0112335D01*
X0104379Y0112335D01*
X0101879Y0109835D01*
X0085757Y0076902D02*
X0080757Y0076902D01*
X0078257Y0074402D01*
X0078257Y0069402D01*
X0080757Y0066902D01*
X0078257Y0064402D01*
X0078257Y0059402D01*
X0080757Y0056902D01*
X0085757Y0056902D02*
X0088257Y0059402D01*
X0088257Y0064402D01*
X0085757Y0066902D01*
X0088257Y0069402D01*
X0088257Y0074402D01*
X0085757Y0076902D01*
X0085757Y0041469D02*
X0080757Y0041469D01*
X0078257Y0038969D01*
X0078257Y0033969D01*
X0080757Y0031469D01*
X0078257Y0028969D01*
X0078257Y0023969D01*
X0080757Y0021469D01*
X0085757Y0021469D02*
X0088257Y0023969D01*
X0088257Y0028969D01*
X0085757Y0031469D01*
X0088257Y0033969D01*
X0088257Y0038969D01*
X0085757Y0041469D01*
D11*
X0039800Y0063300D02*
X0039800Y0095800D01*
X0003800Y0095800D01*
X0003800Y0063300D01*
X0039800Y0063300D01*
D12*
X0024245Y0086150D02*
X0020041Y0086150D01*
X0022143Y0086150D02*
X0022143Y0092455D01*
X0020041Y0090354D01*
X0017799Y0091404D02*
X0016748Y0092455D01*
X0014646Y0092455D01*
X0013595Y0091404D01*
X0013595Y0090354D01*
X0014646Y0089303D01*
X0016748Y0089303D01*
X0017799Y0088252D01*
X0017799Y0087201D01*
X0016748Y0086150D01*
X0014646Y0086150D01*
X0013595Y0087201D01*
X0011354Y0086150D02*
X0007150Y0086150D01*
X0007150Y0092455D01*
X0011354Y0092455D01*
X0009252Y0089303D02*
X0007150Y0089303D01*
X0015697Y0093506D02*
X0015697Y0085099D01*
D13*
X0015273Y0095832D02*
X0016441Y0097000D01*
X0015857Y0097000D01*
X0015857Y0097584D01*
X0016441Y0097584D01*
X0016441Y0097000D01*
X0017667Y0097000D02*
X0020003Y0099335D01*
X0020003Y0099919D01*
X0019419Y0100503D01*
X0018251Y0100503D01*
X0017667Y0099919D01*
X0017667Y0097000D02*
X0020003Y0097000D01*
X0021258Y0097000D02*
X0021258Y0099335D01*
X0021842Y0099335D01*
X0022426Y0098751D01*
X0023010Y0099335D01*
X0023594Y0098751D01*
X0023594Y0097000D01*
X0022426Y0097000D02*
X0022426Y0098751D01*
X0024849Y0099335D02*
X0024849Y0097000D01*
X0026017Y0097000D02*
X0026017Y0098751D01*
X0026601Y0099335D01*
X0027185Y0098751D01*
X0027185Y0097000D01*
X0026017Y0098751D02*
X0025433Y0099335D01*
X0024849Y0099335D01*
X0014017Y0098751D02*
X0014017Y0097584D01*
X0013434Y0097000D01*
X0012266Y0097000D01*
X0011682Y0097584D01*
X0011682Y0098751D02*
X0012850Y0099335D01*
X0013434Y0099335D01*
X0014017Y0098751D01*
X0014017Y0100503D02*
X0011682Y0100503D01*
X0011682Y0098751D01*
X0010426Y0097000D02*
X0008091Y0097000D01*
X0009259Y0097000D02*
X0009259Y0100503D01*
X0008091Y0099335D01*
X0006835Y0099335D02*
X0006835Y0097000D01*
X0006835Y0098751D02*
X0004500Y0098751D01*
X0004500Y0099335D02*
X0005668Y0100503D01*
X0006835Y0099335D01*
X0004500Y0099335D02*
X0004500Y0097000D01*
D14*
X0011800Y0059050D03*
X0021800Y0059050D03*
X0031800Y0059050D03*
D15*
X0015300Y0109800D02*
X0015302Y0109961D01*
X0015308Y0110121D01*
X0015318Y0110282D01*
X0015332Y0110442D01*
X0015350Y0110602D01*
X0015371Y0110761D01*
X0015397Y0110920D01*
X0015427Y0111078D01*
X0015460Y0111235D01*
X0015498Y0111392D01*
X0015539Y0111547D01*
X0015584Y0111701D01*
X0015633Y0111854D01*
X0015686Y0112006D01*
X0015742Y0112157D01*
X0015803Y0112306D01*
X0015866Y0112454D01*
X0015934Y0112600D01*
X0016005Y0112744D01*
X0016079Y0112886D01*
X0016157Y0113027D01*
X0016239Y0113165D01*
X0016324Y0113302D01*
X0016412Y0113436D01*
X0016504Y0113568D01*
X0016599Y0113698D01*
X0016697Y0113826D01*
X0016798Y0113951D01*
X0016902Y0114073D01*
X0017009Y0114193D01*
X0017119Y0114310D01*
X0017232Y0114425D01*
X0017348Y0114536D01*
X0017467Y0114645D01*
X0017588Y0114750D01*
X0017712Y0114853D01*
X0017838Y0114953D01*
X0017966Y0115049D01*
X0018097Y0115142D01*
X0018231Y0115232D01*
X0018366Y0115319D01*
X0018504Y0115402D01*
X0018643Y0115482D01*
X0018785Y0115558D01*
X0018928Y0115631D01*
X0019073Y0115700D01*
X0019220Y0115766D01*
X0019368Y0115828D01*
X0019518Y0115886D01*
X0019669Y0115941D01*
X0019822Y0115992D01*
X0019976Y0116039D01*
X0020131Y0116082D01*
X0020287Y0116121D01*
X0020443Y0116157D01*
X0020601Y0116188D01*
X0020759Y0116216D01*
X0020918Y0116240D01*
X0021078Y0116260D01*
X0021238Y0116276D01*
X0021398Y0116288D01*
X0021559Y0116296D01*
X0021720Y0116300D01*
X0021880Y0116300D01*
X0022041Y0116296D01*
X0022202Y0116288D01*
X0022362Y0116276D01*
X0022522Y0116260D01*
X0022682Y0116240D01*
X0022841Y0116216D01*
X0022999Y0116188D01*
X0023157Y0116157D01*
X0023313Y0116121D01*
X0023469Y0116082D01*
X0023624Y0116039D01*
X0023778Y0115992D01*
X0023931Y0115941D01*
X0024082Y0115886D01*
X0024232Y0115828D01*
X0024380Y0115766D01*
X0024527Y0115700D01*
X0024672Y0115631D01*
X0024815Y0115558D01*
X0024957Y0115482D01*
X0025096Y0115402D01*
X0025234Y0115319D01*
X0025369Y0115232D01*
X0025503Y0115142D01*
X0025634Y0115049D01*
X0025762Y0114953D01*
X0025888Y0114853D01*
X0026012Y0114750D01*
X0026133Y0114645D01*
X0026252Y0114536D01*
X0026368Y0114425D01*
X0026481Y0114310D01*
X0026591Y0114193D01*
X0026698Y0114073D01*
X0026802Y0113951D01*
X0026903Y0113826D01*
X0027001Y0113698D01*
X0027096Y0113568D01*
X0027188Y0113436D01*
X0027276Y0113302D01*
X0027361Y0113165D01*
X0027443Y0113027D01*
X0027521Y0112886D01*
X0027595Y0112744D01*
X0027666Y0112600D01*
X0027734Y0112454D01*
X0027797Y0112306D01*
X0027858Y0112157D01*
X0027914Y0112006D01*
X0027967Y0111854D01*
X0028016Y0111701D01*
X0028061Y0111547D01*
X0028102Y0111392D01*
X0028140Y0111235D01*
X0028173Y0111078D01*
X0028203Y0110920D01*
X0028229Y0110761D01*
X0028250Y0110602D01*
X0028268Y0110442D01*
X0028282Y0110282D01*
X0028292Y0110121D01*
X0028298Y0109961D01*
X0028300Y0109800D01*
X0028298Y0109639D01*
X0028292Y0109479D01*
X0028282Y0109318D01*
X0028268Y0109158D01*
X0028250Y0108998D01*
X0028229Y0108839D01*
X0028203Y0108680D01*
X0028173Y0108522D01*
X0028140Y0108365D01*
X0028102Y0108208D01*
X0028061Y0108053D01*
X0028016Y0107899D01*
X0027967Y0107746D01*
X0027914Y0107594D01*
X0027858Y0107443D01*
X0027797Y0107294D01*
X0027734Y0107146D01*
X0027666Y0107000D01*
X0027595Y0106856D01*
X0027521Y0106714D01*
X0027443Y0106573D01*
X0027361Y0106435D01*
X0027276Y0106298D01*
X0027188Y0106164D01*
X0027096Y0106032D01*
X0027001Y0105902D01*
X0026903Y0105774D01*
X0026802Y0105649D01*
X0026698Y0105527D01*
X0026591Y0105407D01*
X0026481Y0105290D01*
X0026368Y0105175D01*
X0026252Y0105064D01*
X0026133Y0104955D01*
X0026012Y0104850D01*
X0025888Y0104747D01*
X0025762Y0104647D01*
X0025634Y0104551D01*
X0025503Y0104458D01*
X0025369Y0104368D01*
X0025234Y0104281D01*
X0025096Y0104198D01*
X0024957Y0104118D01*
X0024815Y0104042D01*
X0024672Y0103969D01*
X0024527Y0103900D01*
X0024380Y0103834D01*
X0024232Y0103772D01*
X0024082Y0103714D01*
X0023931Y0103659D01*
X0023778Y0103608D01*
X0023624Y0103561D01*
X0023469Y0103518D01*
X0023313Y0103479D01*
X0023157Y0103443D01*
X0022999Y0103412D01*
X0022841Y0103384D01*
X0022682Y0103360D01*
X0022522Y0103340D01*
X0022362Y0103324D01*
X0022202Y0103312D01*
X0022041Y0103304D01*
X0021880Y0103300D01*
X0021720Y0103300D01*
X0021559Y0103304D01*
X0021398Y0103312D01*
X0021238Y0103324D01*
X0021078Y0103340D01*
X0020918Y0103360D01*
X0020759Y0103384D01*
X0020601Y0103412D01*
X0020443Y0103443D01*
X0020287Y0103479D01*
X0020131Y0103518D01*
X0019976Y0103561D01*
X0019822Y0103608D01*
X0019669Y0103659D01*
X0019518Y0103714D01*
X0019368Y0103772D01*
X0019220Y0103834D01*
X0019073Y0103900D01*
X0018928Y0103969D01*
X0018785Y0104042D01*
X0018643Y0104118D01*
X0018504Y0104198D01*
X0018366Y0104281D01*
X0018231Y0104368D01*
X0018097Y0104458D01*
X0017966Y0104551D01*
X0017838Y0104647D01*
X0017712Y0104747D01*
X0017588Y0104850D01*
X0017467Y0104955D01*
X0017348Y0105064D01*
X0017232Y0105175D01*
X0017119Y0105290D01*
X0017009Y0105407D01*
X0016902Y0105527D01*
X0016798Y0105649D01*
X0016697Y0105774D01*
X0016599Y0105902D01*
X0016504Y0106032D01*
X0016412Y0106164D01*
X0016324Y0106298D01*
X0016239Y0106435D01*
X0016157Y0106573D01*
X0016079Y0106714D01*
X0016005Y0106856D01*
X0015934Y0107000D01*
X0015866Y0107146D01*
X0015803Y0107294D01*
X0015742Y0107443D01*
X0015686Y0107594D01*
X0015633Y0107746D01*
X0015584Y0107899D01*
X0015539Y0108053D01*
X0015498Y0108208D01*
X0015460Y0108365D01*
X0015427Y0108522D01*
X0015397Y0108680D01*
X0015371Y0108839D01*
X0015350Y0108998D01*
X0015332Y0109158D01*
X0015318Y0109318D01*
X0015308Y0109479D01*
X0015302Y0109639D01*
X0015300Y0109800D01*
D16*
X0017600Y0005800D03*
X0017600Y0025800D03*
X0046000Y0025800D03*
X0046000Y0005800D03*
D17*
X0041698Y0015050D02*
X0040197Y0015050D01*
X0039446Y0015801D01*
X0037845Y0015801D02*
X0037845Y0016551D01*
X0037094Y0017302D01*
X0035593Y0017302D01*
X0034842Y0018053D01*
X0034842Y0018803D01*
X0035593Y0019554D01*
X0037094Y0019554D01*
X0037845Y0018803D01*
X0039446Y0018803D02*
X0040197Y0019554D01*
X0041698Y0019554D01*
X0042449Y0018803D01*
X0042449Y0018053D01*
X0041698Y0017302D01*
X0042449Y0016551D01*
X0042449Y0015801D01*
X0041698Y0015050D01*
X0041698Y0017302D02*
X0040947Y0017302D01*
X0037845Y0015801D02*
X0037094Y0015050D01*
X0035593Y0015050D01*
X0034842Y0015801D01*
X0033241Y0015050D02*
X0030238Y0015050D01*
X0030238Y0019554D01*
X0033241Y0019554D01*
X0031739Y0017302D02*
X0030238Y0017302D01*
X0030008Y0016554D02*
X0029258Y0015803D01*
X0030008Y0016554D02*
X0031510Y0016554D01*
X0032260Y0015803D01*
X0032260Y0015053D01*
X0029258Y0012050D01*
X0032260Y0012050D01*
X0036343Y0014299D02*
X0036343Y0020304D01*
X0027656Y0015803D02*
X0026906Y0016554D01*
X0025405Y0016554D01*
X0024654Y0015803D01*
X0024654Y0015053D01*
X0025405Y0014302D01*
X0026906Y0014302D01*
X0027656Y0013551D01*
X0027656Y0012801D01*
X0026906Y0012050D01*
X0025405Y0012050D01*
X0024654Y0012801D01*
X0023053Y0012050D02*
X0020050Y0012050D01*
X0020050Y0016554D01*
X0023053Y0016554D01*
X0021551Y0014302D02*
X0020050Y0014302D01*
X0026155Y0017304D02*
X0026155Y0011299D01*
X0081003Y0043617D02*
X0085507Y0043617D01*
X0085507Y0045118D02*
X0085507Y0042115D01*
X0082504Y0042115D02*
X0081003Y0043617D01*
X0090003Y0040118D02*
X0090003Y0037115D01*
X0090753Y0035514D02*
X0090003Y0034763D01*
X0090003Y0033262D01*
X0090753Y0032511D01*
X0091504Y0032511D01*
X0092255Y0033262D01*
X0092255Y0034763D01*
X0093005Y0035514D01*
X0093756Y0035514D01*
X0094507Y0034763D01*
X0094507Y0033262D01*
X0093756Y0032511D01*
X0094507Y0030910D02*
X0094507Y0027907D01*
X0090003Y0027907D01*
X0090003Y0030910D01*
X0092255Y0029409D02*
X0092255Y0027907D01*
X0089252Y0034013D02*
X0095257Y0034013D01*
X0094507Y0037115D02*
X0093756Y0037115D01*
X0090753Y0040118D01*
X0090003Y0040118D01*
X0090003Y0063341D02*
X0094507Y0063341D01*
X0094507Y0066343D01*
X0093756Y0067944D02*
X0094507Y0068695D01*
X0094507Y0070196D01*
X0093756Y0070947D01*
X0093005Y0070947D01*
X0092255Y0070196D01*
X0092255Y0068695D01*
X0091504Y0067944D01*
X0090753Y0067944D01*
X0090003Y0068695D01*
X0090003Y0070196D01*
X0090753Y0070947D01*
X0089252Y0069446D02*
X0095257Y0069446D01*
X0093756Y0072548D02*
X0092255Y0072548D01*
X0092255Y0074800D01*
X0093005Y0075551D01*
X0093756Y0075551D01*
X0094507Y0074800D01*
X0094507Y0073299D01*
X0093756Y0072548D01*
X0092255Y0072548D02*
X0090753Y0074050D01*
X0090003Y0075551D01*
X0085507Y0077548D02*
X0085507Y0080551D01*
X0085507Y0079050D02*
X0081003Y0079050D01*
X0082504Y0077548D01*
X0090003Y0066343D02*
X0090003Y0063341D01*
X0092255Y0063341D02*
X0092255Y0064842D01*
X0092255Y0098774D02*
X0092255Y0100275D01*
X0094507Y0098774D02*
X0094507Y0101776D01*
X0093756Y0103378D02*
X0094507Y0104128D01*
X0094507Y0105629D01*
X0093756Y0106380D01*
X0093005Y0106380D01*
X0092255Y0105629D01*
X0092255Y0104128D01*
X0091504Y0103378D01*
X0090753Y0103378D01*
X0090003Y0104128D01*
X0090003Y0105629D01*
X0090753Y0106380D01*
X0089252Y0104879D02*
X0095257Y0104879D01*
X0092255Y0107981D02*
X0092255Y0110984D01*
X0094507Y0110233D02*
X0090003Y0110233D01*
X0092255Y0107981D01*
X0090003Y0101776D02*
X0090003Y0098774D01*
X0094507Y0098774D01*
X0085507Y0112982D02*
X0085507Y0115984D01*
X0085507Y0114483D02*
X0081003Y0114483D01*
X0082504Y0112982D01*
X0104625Y0114483D02*
X0109129Y0114483D01*
X0109129Y0112982D02*
X0109129Y0115984D01*
X0106126Y0112982D02*
X0104625Y0114483D01*
X0113625Y0110984D02*
X0113625Y0107981D01*
X0115877Y0107981D01*
X0115126Y0109483D01*
X0115126Y0110233D01*
X0115877Y0110984D01*
X0117378Y0110984D01*
X0118129Y0110233D01*
X0118129Y0108732D01*
X0117378Y0107981D01*
X0117378Y0106380D02*
X0116627Y0106380D01*
X0115877Y0105629D01*
X0115877Y0104128D01*
X0115126Y0103378D01*
X0114376Y0103378D01*
X0113625Y0104128D01*
X0113625Y0105629D01*
X0114376Y0106380D01*
X0112874Y0104879D02*
X0118879Y0104879D01*
X0118129Y0105629D02*
X0118129Y0104128D01*
X0117378Y0103378D01*
X0118129Y0105629D02*
X0117378Y0106380D01*
X0118129Y0101776D02*
X0118129Y0098774D01*
X0113625Y0098774D01*
X0113625Y0101776D01*
X0115877Y0100275D02*
X0115877Y0098774D01*
M02*
