G75*
%MOIN*%
%OFA0B0*%
%FSLAX25Y25*%
%IPPOS*%
%LPD*%
%AMOC8*
5,1,8,0,0,1.08239X$1,22.5*
%
%ADD10C,0.00600*%
%ADD11C,0.07600*%
%ADD12OC8,0.08600*%
%ADD13C,0.07000*%
D10*
X0073669Y0046211D02*
X0073669Y0050481D01*
X0074737Y0051549D01*
X0077940Y0051549D01*
X0077940Y0045143D01*
X0074737Y0045143D01*
X0073669Y0046211D01*
X0080115Y0046211D02*
X0081182Y0045143D01*
X0083318Y0045143D01*
X0084385Y0046211D01*
X0084385Y0050481D01*
X0083318Y0051549D01*
X0081182Y0051549D01*
X0080115Y0050481D01*
X0086560Y0045143D02*
X0090831Y0045143D01*
X0090831Y0051549D01*
X0090831Y0081887D02*
X0090831Y0086158D01*
X0087628Y0086158D01*
X0086560Y0085090D01*
X0086560Y0081887D01*
X0084385Y0082955D02*
X0084385Y0085090D01*
X0083318Y0086158D01*
X0081182Y0086158D01*
X0080115Y0085090D01*
X0080115Y0082955D01*
X0081182Y0081887D01*
X0083318Y0081887D01*
X0084385Y0082955D01*
X0077940Y0082955D02*
X0077940Y0085090D01*
X0076872Y0086158D01*
X0073669Y0086158D01*
X0071494Y0085090D02*
X0070427Y0086158D01*
X0068291Y0086158D01*
X0067224Y0085090D01*
X0067224Y0084023D01*
X0071494Y0084023D01*
X0071494Y0085090D02*
X0071494Y0082955D01*
X0070427Y0081887D01*
X0068291Y0081887D01*
X0073669Y0081887D02*
X0076872Y0081887D01*
X0077940Y0082955D01*
X0073669Y0081887D02*
X0073669Y0088293D01*
X0072582Y0117320D02*
X0070447Y0121591D01*
X0067204Y0121591D02*
X0065069Y0121591D01*
X0064001Y0120523D01*
X0064001Y0117320D01*
X0067204Y0117320D01*
X0068271Y0118388D01*
X0067204Y0119456D01*
X0064001Y0119456D01*
X0072582Y0117320D02*
X0074717Y0121591D01*
X0076892Y0120523D02*
X0076892Y0117320D01*
X0080095Y0117320D01*
X0081162Y0118388D01*
X0080095Y0119456D01*
X0076892Y0119456D01*
X0076892Y0120523D02*
X0077960Y0121591D01*
X0080095Y0121591D01*
X0083331Y0121591D02*
X0084399Y0121591D01*
X0086534Y0119456D01*
X0086534Y0121591D02*
X0086534Y0117320D01*
X0088696Y0117320D02*
X0089763Y0118388D01*
X0089763Y0122658D01*
X0088696Y0121591D02*
X0090831Y0121591D01*
X0120931Y0109073D02*
X0125202Y0109073D01*
X0123067Y0106938D02*
X0123067Y0111208D01*
X0123067Y0091872D02*
X0123067Y0087601D01*
D11*
X0031800Y0054600D02*
X0031800Y0047000D01*
X0021800Y0047000D02*
X0021800Y0054600D01*
X0011800Y0054600D02*
X0011800Y0047000D01*
D12*
X0011800Y0005800D03*
X0011800Y0025800D03*
X0051800Y0025800D03*
X0051800Y0005800D03*
D13*
X0079757Y0026469D02*
X0086757Y0026469D01*
X0086757Y0036469D02*
X0079757Y0036469D01*
X0079757Y0061902D02*
X0086757Y0061902D01*
X0086757Y0071902D02*
X0079757Y0071902D01*
X0079757Y0097335D02*
X0086757Y0097335D01*
X0086757Y0107335D02*
X0079757Y0107335D01*
X0103379Y0107335D02*
X0110379Y0107335D01*
X0110379Y0097335D02*
X0103379Y0097335D01*
M02*
